<svg xmlns="http://www.w3.org/2000/svg" xmlns:xlink="http://www.w3.org/1999/xlink" contentStyleType="text/css" data-diagram-type="CLASS" height="1162px" preserveAspectRatio="none" style="width:1825px;height:1162px;background:#FFFFFF;" version="1.1" viewBox="0 0 1825 1162" width="1825px" zoomAndPan="magnify"><title>SysML v2 Overview - Alps Rescue Drone</title><defs/><g><g class="title" data-source-line="3"><text fill="#000000" font-family="sans-serif" font-size="14" font-weight="bold" lengthAdjust="spacing" textLength="316.0596" x="747.4702" y="22.9951">SysML v2 Overview - Alps Rescue Drone</text></g><!--cluster Requirements--><g class="cluster" data-entity="Requirements" data-source-line="16" data-uid="ent0002" id="cluster_Requirements"><rect fill="none" height="577" rx="2.5" ry="2.5" style="stroke:#000000;stroke-width:1.5;" width="327" x="1078" y="173.2969"/><text fill="#000000" font-family="sans-serif" font-size="14" font-weight="bold" lengthAdjust="spacing" textLength="110.5371" x="1186.2314" y="188.292">Requirements</text></g><!--cluster Use Cases--><g class="cluster" data-entity="Use Cases" data-source-line="39" data-uid="ent0007" id="cluster_Use Cases"><rect fill="none" height="264" rx="2.5" ry="2.5" style="stroke:#000000;stroke-width:1.5;" width="1308.5" x="7" y="774.2969"/><text fill="#000000" font-family="sans-serif" font-size="14" font-weight="bold" lengthAdjust="spacing" textLength="79.9531" x="621.2734" y="789.292">Use Cases</text></g><!--cluster Logical Structure--><g class="cluster" data-entity="Logical Structure" data-source-line="70" data-uid="ent0022" id="cluster_Logical Structure"><rect fill="none" height="890" rx="2.5" ry="2.5" style="stroke:#000000;stroke-width:1.5;" width="321" x="1498" y="44.2969"/><text fill="#000000" font-family="sans-serif" font-size="14" font-weight="bold" lengthAdjust="spacing" textLength="135.7822" x="1590.6089" y="59.292">Logical Structure</text></g><!--class R01--><g class="entity" data-entity="R01" data-source-line="17" data-uid="ent0003" id="entity_R01"><rect fill="#FFF5D7" height="105.1563" rx="2.5" ry="2.5" style="stroke:#C99A00;stroke-width:0.5;" width="294.0781" x="1094.5" y="208.7969"/><ellipse cx="1194.5967" cy="228.9297" fill="#ADD1B2" rx="11" ry="11" style="stroke:#181818;stroke-width:1;"/><path d="M1197.5654,234.5703 Q1196.9873,234.8672 1196.3467,235.0078 Q1195.7061,235.1641 1195.0029,235.1641 Q1192.5029,235.1641 1191.1748,233.5234 Q1189.8623,231.8672 1189.8623,228.7422 Q1189.8623,225.6172 1191.1748,223.9609 Q1192.5029,222.3047 1195.0029,222.3047 Q1195.7061,222.3047 1196.3467,222.4609 Q1197.0029,222.6172 1197.5654,222.9141 L1197.5654,225.6328 Q1196.9404,225.0547 1196.3467,224.7891 Q1195.7529,224.5078 1195.1279,224.5078 Q1193.7842,224.5078 1193.0967,225.5859 Q1192.4092,226.6484 1192.4092,228.7422 Q1192.4092,230.8359 1193.0967,231.9141 Q1193.7842,232.9766 1195.1279,232.9766 Q1195.7529,232.9766 1196.3467,232.7109 Q1196.9404,232.4297 1197.5654,231.8516 L1197.5654,234.5703 Z " fill="#000000"/><text fill="#000000" font-family="sans-serif" font-size="12" font-style="italic" lengthAdjust="spacing" textLength="89.3848" x="1213.0967" y="224.9355">&#171;requirement&#187;</text><text fill="#000000" font-family="sans-serif" font-size="14" lengthAdjust="spacing" textLength="27.542" x="1244.0181" y="240.7607">R01</text><line style="stroke:#C99A00;stroke-width:0.5;" x1="1095.5" x2="1387.5781" y1="249.0625" y2="249.0625"/><text fill="#000000" font-family="sans-serif" font-size="14" lengthAdjust="spacing" textLength="78.8799" x="1100.5" y="266.0576">id = "R-01"</text><text fill="#000000" font-family="sans-serif" font-size="14" lengthAdjust="spacing" textLength="282.0781" x="1100.5" y="282.3545">text = "Locate injured hiker &lt;= 15 min"</text><text fill="#000000" font-family="sans-serif" font-size="14" lengthAdjust="spacing" textLength="129.1035" x="1100.5" y="298.6514">status = proposed</text><line style="stroke:#C99A00;stroke-width:0.5;" x1="1095.5" x2="1387.5781" y1="305.9531" y2="305.9531"/></g><!--class R02--><g class="entity" data-entity="R02" data-source-line="22" data-uid="ent0004" id="entity_R02"><rect fill="#FFF5D7" height="105.1563" rx="2.5" ry="2.5" style="stroke:#C99A00;stroke-width:0.5;" width="212.2656" x="1135.5" y="348.7969"/><ellipse cx="1194.6904" cy="368.9297" fill="#ADD1B2" rx="11" ry="11" style="stroke:#181818;stroke-width:1;"/><path d="M1197.6592,374.5703 Q1197.0811,374.8672 1196.4404,375.0078 Q1195.7998,375.1641 1195.0967,375.1641 Q1192.5967,375.1641 1191.2686,373.5234 Q1189.9561,371.8672 1189.9561,368.7422 Q1189.9561,365.6172 1191.2686,363.9609 Q1192.5967,362.3047 1195.0967,362.3047 Q1195.7998,362.3047 1196.4404,362.4609 Q1197.0967,362.6172 1197.6592,362.9141 L1197.6592,365.6328 Q1197.0342,365.0547 1196.4404,364.7891 Q1195.8467,364.5078 1195.2217,364.5078 Q1193.8779,364.5078 1193.1904,365.5859 Q1192.5029,366.6484 1192.5029,368.7422 Q1192.5029,370.8359 1193.1904,371.9141 Q1193.8779,372.9766 1195.2217,372.9766 Q1195.8467,372.9766 1196.4404,372.7109 Q1197.0342,372.4297 1197.6592,371.8516 L1197.6592,374.5703 Z " fill="#000000"/><text fill="#000000" font-family="sans-serif" font-size="12" font-style="italic" lengthAdjust="spacing" textLength="89.3848" x="1213.1904" y="364.9355">&#171;requirement&#187;</text><text fill="#000000" font-family="sans-serif" font-size="14" lengthAdjust="spacing" textLength="27.542" x="1244.1118" y="380.7607">R02</text><line style="stroke:#C99A00;stroke-width:0.5;" x1="1136.5" x2="1346.7656" y1="389.0625" y2="389.0625"/><text fill="#000000" font-family="sans-serif" font-size="14" lengthAdjust="spacing" textLength="78.8799" x="1141.5" y="406.0576">id = "R-02"</text><text fill="#000000" font-family="sans-serif" font-size="14" lengthAdjust="spacing" textLength="200.2656" x="1141.5" y="422.3545">text = "Operate in fog/dusk"</text><text fill="#000000" font-family="sans-serif" font-size="14" lengthAdjust="spacing" textLength="129.1035" x="1141.5" y="438.6514">status = proposed</text><line style="stroke:#C99A00;stroke-width:0.5;" x1="1136.5" x2="1346.7656" y1="445.9531" y2="445.9531"/></g><!--class R03--><g class="entity" data-entity="R03" data-source-line="27" data-uid="ent0005" id="entity_R03"><rect fill="#FFF5D7" height="105.1563" rx="2.5" ry="2.5" style="stroke:#C99A00;stroke-width:0.5;" width="271.8613" x="1105.5" y="488.7969"/><ellipse cx="1194.4883" cy="508.9297" fill="#ADD1B2" rx="11" ry="11" style="stroke:#181818;stroke-width:1;"/><path d="M1197.457,514.5703 Q1196.8789,514.8672 1196.2383,515.0078 Q1195.5977,515.1641 1194.8945,515.1641 Q1192.3945,515.1641 1191.0664,513.5234 Q1189.7539,511.8672 1189.7539,508.7422 Q1189.7539,505.6172 1191.0664,503.9609 Q1192.3945,502.3047 1194.8945,502.3047 Q1195.5977,502.3047 1196.2383,502.4609 Q1196.8945,502.6172 1197.457,502.9141 L1197.457,505.6328 Q1196.832,505.0547 1196.2383,504.7891 Q1195.6445,504.5078 1195.0195,504.5078 Q1193.6758,504.5078 1192.9883,505.5859 Q1192.3008,506.6484 1192.3008,508.7422 Q1192.3008,510.8359 1192.9883,511.9141 Q1193.6758,512.9766 1195.0195,512.9766 Q1195.6445,512.9766 1196.2383,512.7109 Q1196.832,512.4297 1197.457,511.8516 L1197.457,514.5703 Z " fill="#000000"/><text fill="#000000" font-family="sans-serif" font-size="12" font-style="italic" lengthAdjust="spacing" textLength="89.3848" x="1212.9883" y="504.9355">&#171;requirement&#187;</text><text fill="#000000" font-family="sans-serif" font-size="14" lengthAdjust="spacing" textLength="27.542" x="1243.9097" y="520.7607">R03</text><line style="stroke:#C99A00;stroke-width:0.5;" x1="1106.5" x2="1376.3613" y1="529.0625" y2="529.0625"/><text fill="#000000" font-family="sans-serif" font-size="14" lengthAdjust="spacing" textLength="78.8799" x="1111.5" y="546.0576">id = "R-03"</text><text fill="#000000" font-family="sans-serif" font-size="14" lengthAdjust="spacing" textLength="259.8613" x="1111.5" y="562.3545">text = "Manual override at any time"</text><text fill="#000000" font-family="sans-serif" font-size="14" lengthAdjust="spacing" textLength="129.1035" x="1111.5" y="578.6514">status = proposed</text><line style="stroke:#C99A00;stroke-width:0.5;" x1="1106.5" x2="1376.3613" y1="585.9531" y2="585.9531"/></g><!--class R04--><g class="entity" data-entity="R04" data-source-line="32" data-uid="ent0006" id="entity_R04"><rect fill="#FFF5D7" height="105.1563" rx="2.5" ry="2.5" style="stroke:#C99A00;stroke-width:0.5;" width="294.625" x="1094" y="628.7969"/><ellipse cx="1194.3701" cy="648.9297" fill="#ADD1B2" rx="11" ry="11" style="stroke:#181818;stroke-width:1;"/><path d="M1197.3389,654.5703 Q1196.7607,654.8672 1196.1201,655.0078 Q1195.4795,655.1641 1194.7764,655.1641 Q1192.2764,655.1641 1190.9482,653.5234 Q1189.6357,651.8672 1189.6357,648.7422 Q1189.6357,645.6172 1190.9482,643.9609 Q1192.2764,642.3047 1194.7764,642.3047 Q1195.4795,642.3047 1196.1201,642.4609 Q1196.7764,642.6172 1197.3389,642.9141 L1197.3389,645.6328 Q1196.7139,645.0547 1196.1201,644.7891 Q1195.5264,644.5078 1194.9014,644.5078 Q1193.5576,644.5078 1192.8701,645.5859 Q1192.1826,646.6484 1192.1826,648.7422 Q1192.1826,650.8359 1192.8701,651.9141 Q1193.5576,652.9766 1194.9014,652.9766 Q1195.5264,652.9766 1196.1201,652.7109 Q1196.7139,652.4297 1197.3389,651.8516 L1197.3389,654.5703 Z " fill="#000000"/><text fill="#000000" font-family="sans-serif" font-size="12" font-style="italic" lengthAdjust="spacing" textLength="89.3848" x="1212.8701" y="644.9355">&#171;requirement&#187;</text><text fill="#000000" font-family="sans-serif" font-size="14" lengthAdjust="spacing" textLength="27.542" x="1243.7915" y="660.7607">R04</text><line style="stroke:#C99A00;stroke-width:0.5;" x1="1095" x2="1387.625" y1="669.0625" y2="669.0625"/><text fill="#000000" font-family="sans-serif" font-size="14" lengthAdjust="spacing" textLength="78.8799" x="1100" y="686.0576">id = "R-04"</text><text fill="#000000" font-family="sans-serif" font-size="14" lengthAdjust="spacing" textLength="282.625" x="1100" y="702.3545">text = "Minimize environmental impact"</text><text fill="#000000" font-family="sans-serif" font-size="14" lengthAdjust="spacing" textLength="129.1035" x="1100" y="718.6514">status = proposed</text><line style="stroke:#C99A00;stroke-width:0.5;" x1="1095" x2="1387.625" y1="725.9531" y2="725.9531"/></g><!--class Hiker--><g class="entity" data-entity="Hiker" data-source-line="40" data-uid="ent0008" id="entity_Hiker"><rect fill="#F1F1F1" height="56.2656" rx="2.5" ry="2.5" style="stroke:#181818;stroke-width:0.5;" width="73.7441" x="23" y="950.2969"/><ellipse cx="38" cy="970.4297" fill="#ADD1B2" rx="11" ry="11" style="stroke:#181818;stroke-width:1;"/><path d="M40.9688,976.0703 Q40.3906,976.3672 39.75,976.5078 Q39.1094,976.6641 38.4063,976.6641 Q35.9063,976.6641 34.5781,975.0234 Q33.2656,973.3672 33.2656,970.2422 Q33.2656,967.1172 34.5781,965.4609 Q35.9063,963.8047 38.4063,963.8047 Q39.1094,963.8047 39.75,963.9609 Q40.4063,964.1172 40.9688,964.4141 L40.9688,967.1328 Q40.3438,966.5547 39.75,966.2891 Q39.1563,966.0078 38.5313,966.0078 Q37.1875,966.0078 36.5,967.0859 Q35.8125,968.1484 35.8125,970.2422 Q35.8125,972.3359 36.5,973.4141 Q37.1875,974.4766 38.5313,974.4766 Q39.1563,974.4766 39.75,974.2109 Q40.3438,973.9297 40.9688,973.3516 L40.9688,976.0703 Z " fill="#000000"/><text fill="#000000" font-family="sans-serif" font-size="12" font-style="italic" lengthAdjust="spacing" textLength="45.7441" x="50" y="966.4355">&#171;actor&#187;</text><text fill="#000000" font-family="sans-serif" font-size="14" lengthAdjust="spacing" textLength="36.8936" x="54.4253" y="982.2607">Hiker</text><line style="stroke:#181818;stroke-width:0.5;" x1="24" x2="95.7441" y1="990.5625" y2="990.5625"/><line style="stroke:#181818;stroke-width:0.5;" x1="24" x2="95.7441" y1="998.5625" y2="998.5625"/></g><!--class RescueOperator--><g class="entity" data-entity="RescueOperator" data-source-line="41" data-uid="ent0009" id="entity_RescueOperator"><rect fill="#F1F1F1" height="56.2656" rx="2.5" ry="2.5" style="stroke:#181818;stroke-width:0.5;" width="145.4834" x="212.5" y="842.2969"/><ellipse cx="227.5" cy="862.4297" fill="#ADD1B2" rx="11" ry="11" style="stroke:#181818;stroke-width:1;"/><path d="M230.4688,868.0703 Q229.8906,868.3672 229.25,868.5078 Q228.6094,868.6641 227.9063,868.6641 Q225.4063,868.6641 224.0781,867.0234 Q222.7656,865.3672 222.7656,862.2422 Q222.7656,859.1172 224.0781,857.4609 Q225.4063,855.8047 227.9063,855.8047 Q228.6094,855.8047 229.25,855.9609 Q229.9063,856.1172 230.4688,856.4141 L230.4688,859.1328 Q229.8438,858.5547 229.25,858.2891 Q228.6563,858.0078 228.0313,858.0078 Q226.6875,858.0078 226,859.0859 Q225.3125,860.1484 225.3125,862.2422 Q225.3125,864.3359 226,865.4141 Q226.6875,866.4766 228.0313,866.4766 Q228.6563,866.4766 229.25,866.2109 Q229.8438,865.9297 230.4688,865.3516 L230.4688,868.0703 Z " fill="#000000"/><text fill="#000000" font-family="sans-serif" font-size="12" font-style="italic" lengthAdjust="spacing" textLength="45.7441" x="275.3696" y="858.4355">&#171;actor&#187;</text><text fill="#000000" font-family="sans-serif" font-size="14" lengthAdjust="spacing" textLength="113.4834" x="241.5" y="874.2607">RescueOperator</text><line style="stroke:#181818;stroke-width:0.5;" x1="213.5" x2="356.9834" y1="882.5625" y2="882.5625"/><line style="stroke:#181818;stroke-width:0.5;" x1="213.5" x2="356.9834" y1="890.5625" y2="890.5625"/></g><!--class UC1--><g class="entity" data-entity="UC1" data-source-line="42" data-uid="ent0010" id="entity_UC1"><rect fill="#E9F0FF" height="88.8594" rx="2.5" ry="2.5" style="stroke:#2F5FE0;stroke-width:0.5;" width="152.0889" x="209" y="933.7969"/><ellipse cx="251.2026" cy="953.9297" fill="#ADD1B2" rx="11" ry="11" style="stroke:#181818;stroke-width:1;"/><path d="M254.1713,959.5703 Q253.5932,959.8672 252.9526,960.0078 Q252.312,960.1641 251.6088,960.1641 Q249.1088,960.1641 247.7807,958.5234 Q246.4682,956.8672 246.4682,953.7422 Q246.4682,950.6172 247.7807,948.9609 Q249.1088,947.3047 251.6088,947.3047 Q252.312,947.3047 252.9526,947.4609 Q253.6088,947.6172 254.1713,947.9141 L254.1713,950.6328 Q253.5463,950.0547 252.9526,949.7891 Q252.3588,949.5078 251.7338,949.5078 Q250.3901,949.5078 249.7026,950.5859 Q249.0151,951.6484 249.0151,953.7422 Q249.0151,955.8359 249.7026,956.9141 Q250.3901,957.9766 251.7338,957.9766 Q252.3588,957.9766 252.9526,957.7109 Q253.5463,957.4297 254.1713,956.8516 L254.1713,959.5703 Z " fill="#000000"/><text fill="#000000" font-family="sans-serif" font-size="12" font-style="italic" lengthAdjust="spacing" textLength="63.6387" x="269.2476" y="949.9355">&#171;usecase&#187;</text><text fill="#000000" font-family="sans-serif" font-size="14" lengthAdjust="spacing" textLength="28.9297" x="286.6021" y="965.7607">UC1</text><line style="stroke:#2F5FE0;stroke-width:0.5;" x1="210" x2="360.0889" y1="974.0625" y2="974.0625"/><text fill="#000000" font-family="sans-serif" font-size="14" lengthAdjust="spacing" textLength="28.9297" x="215" y="991.0576">UC1</text><text fill="#000000" font-family="sans-serif" font-size="14" lengthAdjust="spacing" textLength="140.0889" x="215" y="1007.3545">Send distress signal</text><line style="stroke:#2F5FE0;stroke-width:0.5;" x1="210" x2="360.0889" y1="1014.6563" y2="1014.6563"/></g><!--class UC2--><g class="entity" data-entity="UC2" data-source-line="46" data-uid="ent0011" id="entity_UC2"><rect fill="#E9F0FF" height="88.8594" rx="2.5" ry="2.5" style="stroke:#2F5FE0;stroke-width:0.5;" width="188.8525" x="476" y="933.7969"/><ellipse cx="536.3569" cy="953.9297" fill="#ADD1B2" rx="11" ry="11" style="stroke:#181818;stroke-width:1;"/><path d="M539.3257,959.5703 Q538.7476,959.8672 538.1069,960.0078 Q537.4663,960.1641 536.7632,960.1641 Q534.2632,960.1641 532.9351,958.5234 Q531.6226,956.8672 531.6226,953.7422 Q531.6226,950.6172 532.9351,948.9609 Q534.2632,947.3047 536.7632,947.3047 Q537.4663,947.3047 538.1069,947.4609 Q538.7632,947.6172 539.3257,947.9141 L539.3257,950.6328 Q538.7007,950.0547 538.1069,949.7891 Q537.5132,949.5078 536.8882,949.5078 Q535.5444,949.5078 534.8569,950.5859 Q534.1694,951.6484 534.1694,953.7422 Q534.1694,955.8359 534.8569,956.9141 Q535.5444,957.9766 536.8882,957.9766 Q537.5132,957.9766 538.1069,957.7109 Q538.7007,957.4297 539.3257,956.8516 L539.3257,959.5703 Z " fill="#000000"/><text fill="#000000" font-family="sans-serif" font-size="12" font-style="italic" lengthAdjust="spacing" textLength="63.6387" x="554.8569" y="949.9355">&#171;usecase&#187;</text><text fill="#000000" font-family="sans-serif" font-size="14" lengthAdjust="spacing" textLength="28.9297" x="572.2114" y="965.7607">UC2</text><line style="stroke:#2F5FE0;stroke-width:0.5;" x1="477" x2="663.8525" y1="974.0625" y2="974.0625"/><text fill="#000000" font-family="sans-serif" font-size="14" lengthAdjust="spacing" textLength="28.9297" x="482" y="991.0576">UC2</text><text fill="#000000" font-family="sans-serif" font-size="14" lengthAdjust="spacing" textLength="176.8525" x="482" y="1007.3545">Launch &amp; navigate drone</text><line style="stroke:#2F5FE0;stroke-width:0.5;" x1="477" x2="663.8525" y1="1014.6563" y2="1014.6563"/></g><!--class UC3--><g class="entity" data-entity="UC3" data-source-line="50" data-uid="ent0012" id="entity_UC3"><rect fill="#E9F0FF" height="88.8594" rx="2.5" ry="2.5" style="stroke:#2F5FE0;stroke-width:0.5;" width="172.7676" x="796" y="933.7969"/><ellipse cx="848.3145" cy="953.9297" fill="#ADD1B2" rx="11" ry="11" style="stroke:#181818;stroke-width:1;"/><path d="M851.2832,959.5703 Q850.7051,959.8672 850.0645,960.0078 Q849.4238,960.1641 848.7207,960.1641 Q846.2207,960.1641 844.8926,958.5234 Q843.5801,956.8672 843.5801,953.7422 Q843.5801,950.6172 844.8926,948.9609 Q846.2207,947.3047 848.7207,947.3047 Q849.4238,947.3047 850.0645,947.4609 Q850.7207,947.6172 851.2832,947.9141 L851.2832,950.6328 Q850.6582,950.0547 850.0645,949.7891 Q849.4707,949.5078 848.8457,949.5078 Q847.502,949.5078 846.8145,950.5859 Q846.127,951.6484 846.127,953.7422 Q846.127,955.8359 846.8145,956.9141 Q847.502,957.9766 848.8457,957.9766 Q849.4707,957.9766 850.0645,957.7109 Q850.6582,957.4297 851.2832,956.8516 L851.2832,959.5703 Z " fill="#000000"/><text fill="#000000" font-family="sans-serif" font-size="12" font-style="italic" lengthAdjust="spacing" textLength="63.6387" x="866.8145" y="949.9355">&#171;usecase&#187;</text><text fill="#000000" font-family="sans-serif" font-size="14" lengthAdjust="spacing" textLength="28.9297" x="884.1689" y="965.7607">UC3</text><line style="stroke:#2F5FE0;stroke-width:0.5;" x1="797" x2="967.7676" y1="974.0625" y2="974.0625"/><text fill="#000000" font-family="sans-serif" font-size="14" lengthAdjust="spacing" textLength="28.9297" x="802" y="991.0576">UC3</text><text fill="#000000" font-family="sans-serif" font-size="14" lengthAdjust="spacing" textLength="160.7676" x="802" y="1007.3545">Search &amp; identify hiker</text><line style="stroke:#2F5FE0;stroke-width:0.5;" x1="797" x2="967.7676" y1="1014.6563" y2="1014.6563"/></g><!--class UC4--><g class="entity" data-entity="UC4" data-source-line="54" data-uid="ent0013" id="entity_UC4"><rect fill="#E9F0FF" height="88.8594" rx="2.5" ry="2.5" style="stroke:#2F5FE0;stroke-width:0.5;" width="116.1592" x="1183.5" y="813.7969"/><ellipse cx="1209.5342" cy="833.9297" fill="#ADD1B2" rx="11" ry="11" style="stroke:#181818;stroke-width:1;"/><path d="M1212.503,839.5703 Q1211.9249,839.8672 1211.2842,840.0078 Q1210.6436,840.1641 1209.9405,840.1641 Q1207.4405,840.1641 1206.1124,838.5234 Q1204.7999,836.8672 1204.7999,833.7422 Q1204.7999,830.6172 1206.1124,828.9609 Q1207.4405,827.3047 1209.9405,827.3047 Q1210.6436,827.3047 1211.2842,827.4609 Q1211.9405,827.6172 1212.503,827.9141 L1212.503,830.6328 Q1211.878,830.0547 1211.2842,829.7891 Q1210.6905,829.5078 1210.0655,829.5078 Q1208.7217,829.5078 1208.0342,830.5859 Q1207.3467,831.6484 1207.3467,833.7422 Q1207.3467,835.8359 1208.0342,836.9141 Q1208.7217,837.9766 1210.0655,837.9766 Q1210.6905,837.9766 1211.2842,837.7109 Q1211.878,837.4297 1212.503,836.8516 L1212.503,839.5703 Z " fill="#000000"/><text fill="#000000" font-family="sans-serif" font-size="12" font-style="italic" lengthAdjust="spacing" textLength="63.6387" x="1223.9863" y="829.9355">&#171;usecase&#187;</text><text fill="#000000" font-family="sans-serif" font-size="14" lengthAdjust="spacing" textLength="28.9297" x="1241.3408" y="845.7607">UC4</text><line style="stroke:#2F5FE0;stroke-width:0.5;" x1="1184.5" x2="1298.6592" y1="854.0625" y2="854.0625"/><text fill="#000000" font-family="sans-serif" font-size="14" lengthAdjust="spacing" textLength="28.9297" x="1189.5" y="871.0576">UC4</text><text fill="#000000" font-family="sans-serif" font-size="14" lengthAdjust="spacing" textLength="104.1592" x="1189.5" y="887.3545">Manual control</text><line style="stroke:#2F5FE0;stroke-width:0.5;" x1="1184.5" x2="1298.6592" y1="894.6563" y2="894.6563"/></g><!--class AlpsRescueSystem--><g class="entity" data-entity="AlpsRescueSystem" data-source-line="71" data-uid="ent0023" id="entity_AlpsRescueSystem"><rect fill="#F0FFF0" height="105.1563" rx="2.5" ry="2.5" style="stroke:#8FBC8F;stroke-width:0.5;" width="250.6836" x="1533" y="202.7969"/><ellipse cx="1587.7559" cy="222.9297" fill="#ADD1B2" rx="11" ry="11" style="stroke:#181818;stroke-width:1;"/><path d="M1590.7246,228.5703 Q1590.1465,228.8672 1589.5059,229.0078 Q1588.8652,229.1641 1588.1621,229.1641 Q1585.6621,229.1641 1584.334,227.5234 Q1583.0215,225.8672 1583.0215,222.7422 Q1583.0215,219.6172 1584.334,217.9609 Q1585.6621,216.3047 1588.1621,216.3047 Q1588.8652,216.3047 1589.5059,216.4609 Q1590.1621,216.6172 1590.7246,216.9141 L1590.7246,219.6328 Q1590.0996,219.0547 1589.5059,218.7891 Q1588.9121,218.5078 1588.2871,218.5078 Q1586.9434,218.5078 1586.2559,219.5859 Q1585.5684,220.6484 1585.5684,222.7422 Q1585.5684,224.8359 1586.2559,225.9141 Q1586.9434,226.9766 1588.2871,226.9766 Q1588.9121,226.9766 1589.5059,226.7109 Q1590.0996,226.4297 1590.7246,225.8516 L1590.7246,228.5703 Z " fill="#000000"/><text fill="#000000" font-family="sans-serif" font-size="12" font-style="italic" lengthAdjust="spacing" textLength="46.6523" x="1651.2656" y="218.9355">&#171;block&#187;</text><text fill="#000000" font-family="sans-serif" font-size="14" lengthAdjust="spacing" textLength="132.6719" x="1608.2559" y="234.7607">AlpsRescueSystem</text><line style="stroke:#8FBC8F;stroke-width:0.5;" x1="1534" x2="1782.6836" y1="243.0625" y2="243.0625"/><text fill="#000000" font-family="sans-serif" font-size="14" lengthAdjust="spacing" textLength="207.3203" x="1539" y="260.0576">part drone : DroneSubsystem</text><text fill="#000000" font-family="sans-serif" font-size="14" lengthAdjust="spacing" textLength="194.4072" x="1539" y="276.3545">part control : ControlDevice</text><text fill="#000000" font-family="sans-serif" font-size="14" lengthAdjust="spacing" textLength="238.6836" x="1539" y="292.6514">part rescueCenter : RescueCenter</text><line style="stroke:#8FBC8F;stroke-width:0.5;" x1="1534" x2="1782.6836" y1="299.9531" y2="299.9531"/></g><!--class DroneSubsystem--><g class="entity" data-entity="DroneSubsystem" data-source-line="77" data-uid="ent0024" id="entity_DroneSubsystem"><rect fill="#F0FFF0" height="137.75" rx="2.5" ry="2.5" style="stroke:#8FBC8F;stroke-width:0.5;" width="196.208" x="1560.5" y="623.2969"/><ellipse cx="1595.4622" cy="643.4297" fill="#ADD1B2" rx="11" ry="11" style="stroke:#181818;stroke-width:1;"/><path d="M1598.4309,649.0703 Q1597.8528,649.3672 1597.2122,649.5078 Q1596.5715,649.6641 1595.8684,649.6641 Q1593.3684,649.6641 1592.0403,648.0234 Q1590.7278,646.3672 1590.7278,643.2422 Q1590.7278,640.1172 1592.0403,638.4609 Q1593.3684,636.8047 1595.8684,636.8047 Q1596.5715,636.8047 1597.2122,636.9609 Q1597.8684,637.1172 1598.4309,637.4141 L1598.4309,640.1328 Q1597.8059,639.5547 1597.2122,639.2891 Q1596.6184,639.0078 1595.9934,639.0078 Q1594.6497,639.0078 1593.9622,640.0859 Q1593.2747,641.1484 1593.2747,643.2422 Q1593.2747,645.3359 1593.9622,646.4141 Q1594.6497,647.4766 1595.9934,647.4766 Q1596.6184,647.4766 1597.2122,647.2109 Q1597.8059,646.9297 1598.4309,646.3516 L1598.4309,649.0703 Z " fill="#000000"/><text fill="#000000" font-family="sans-serif" font-size="12" font-style="italic" lengthAdjust="spacing" textLength="46.6523" x="1650.4958" y="639.4355">&#171;block&#187;</text><text fill="#000000" font-family="sans-serif" font-size="14" lengthAdjust="spacing" textLength="119.8477" x="1613.8982" y="655.2607">DroneSubsystem</text><line style="stroke:#8FBC8F;stroke-width:0.5;" x1="1561.5" x2="1755.708" y1="663.5625" y2="663.5625"/><text fill="#000000" font-family="sans-serif" font-size="14" lengthAdjust="spacing" textLength="149.8369" x="1566.5" y="680.5576">port uplink : CmdPort</text><text fill="#000000" font-family="sans-serif" font-size="14" lengthAdjust="spacing" textLength="177.085" x="1566.5" y="696.8545">port downlink : VideoPort</text><text fill="#000000" font-family="sans-serif" font-size="14" lengthAdjust="spacing" textLength="167.1113" x="1566.5" y="713.1514">part nav : AutonomySW</text><text fill="#000000" font-family="sans-serif" font-size="14" lengthAdjust="spacing" textLength="184.208" x="1566.5" y="729.4482">part sensors : SensorSuite</text><text fill="#000000" font-family="sans-serif" font-size="14" lengthAdjust="spacing" textLength="179.1904" x="1566.5" y="745.7451">part comms : CommsLink</text><line style="stroke:#8FBC8F;stroke-width:0.5;" x1="1561.5" x2="1755.708" y1="753.0469" y2="753.0469"/></g><!--class ControlDevice--><g class="entity" data-entity="ControlDevice" data-source-line="85" data-uid="ent0025" id="entity_ControlDevice"><rect fill="#F0FFF0" height="88.8594" rx="2.5" ry="2.5" style="stroke:#8FBC8F;stroke-width:0.5;" width="197.6094" x="1559.5" y="498.7969"/><ellipse cx="1604.6582" cy="518.9297" fill="#ADD1B2" rx="11" ry="11" style="stroke:#181818;stroke-width:1;"/><path d="M1607.627,524.5703 Q1607.0488,524.8672 1606.4082,525.0078 Q1605.7676,525.1641 1605.0645,525.1641 Q1602.5645,525.1641 1601.2363,523.5234 Q1599.9238,521.8672 1599.9238,518.7422 Q1599.9238,515.6172 1601.2363,513.9609 Q1602.5645,512.3047 1605.0645,512.3047 Q1605.7676,512.3047 1606.4082,512.4609 Q1607.0645,512.6172 1607.627,512.9141 L1607.627,515.6328 Q1607.002,515.0547 1606.4082,514.7891 Q1605.8145,514.5078 1605.1895,514.5078 Q1603.8457,514.5078 1603.1582,515.5859 Q1602.4707,516.6484 1602.4707,518.7422 Q1602.4707,520.8359 1603.1582,521.9141 Q1603.8457,522.9766 1605.1895,522.9766 Q1605.8145,522.9766 1606.4082,522.7109 Q1607.002,522.4297 1607.627,521.8516 L1607.627,524.5703 Z " fill="#000000"/><text fill="#000000" font-family="sans-serif" font-size="12" font-style="italic" lengthAdjust="spacing" textLength="46.6523" x="1651.2285" y="514.9355">&#171;block&#187;</text><text fill="#000000" font-family="sans-serif" font-size="14" lengthAdjust="spacing" textLength="98.793" x="1625.1582" y="530.7607">ControlDevice</text><line style="stroke:#8FBC8F;stroke-width:0.5;" x1="1560.5" x2="1756.1094" y1="539.0625" y2="539.0625"/><text fill="#000000" font-family="sans-serif" font-size="14" lengthAdjust="spacing" textLength="185.6094" x="1565.5" y="556.0576">part tablet : RuggedTablet</text><text fill="#000000" font-family="sans-serif" font-size="14" lengthAdjust="spacing" textLength="151.3955" x="1565.5" y="572.3545">part app : ControlApp</text><line style="stroke:#8FBC8F;stroke-width:0.5;" x1="1560.5" x2="1756.1094" y1="579.6563" y2="579.6563"/></g><!--class RescueCenter--><g class="entity" data-entity="RescueCenter" data-source-line="90" data-uid="ent0026" id="entity_RescueCenter"><rect fill="#F0FFF0" height="88.8594" rx="2.5" ry="2.5" style="stroke:#8FBC8F;stroke-width:0.5;" width="288.835" x="1514" y="78.7969"/><ellipse cx="1605.1982" cy="98.9297" fill="#ADD1B2" rx="11" ry="11" style="stroke:#181818;stroke-width:1;"/><path d="M1608.167,104.5703 Q1607.5889,104.8672 1606.9482,105.0078 Q1606.3076,105.1641 1605.6045,105.1641 Q1603.1045,105.1641 1601.7764,103.5234 Q1600.4639,101.8672 1600.4639,98.7422 Q1600.4639,95.6172 1601.7764,93.9609 Q1603.1045,92.3047 1605.6045,92.3047 Q1606.3076,92.3047 1606.9482,92.4609 Q1607.6045,92.6172 1608.167,92.9141 L1608.167,95.6328 Q1607.542,95.0547 1606.9482,94.7891 Q1606.3545,94.5078 1605.7295,94.5078 Q1604.3857,94.5078 1603.6982,95.5859 Q1603.0107,96.6484 1603.0107,98.7422 Q1603.0107,100.8359 1603.6982,101.9141 Q1604.3857,102.9766 1605.7295,102.9766 Q1606.3545,102.9766 1606.9482,102.7109 Q1607.542,102.4297 1608.167,101.8516 L1608.167,104.5703 Z " fill="#000000"/><text fill="#000000" font-family="sans-serif" font-size="12" font-style="italic" lengthAdjust="spacing" textLength="46.6523" x="1651.3413" y="94.9355">&#171;block&#187;</text><text fill="#000000" font-family="sans-serif" font-size="14" lengthAdjust="spacing" textLength="97.9385" x="1625.6982" y="110.7607">RescueCenter</text><line style="stroke:#8FBC8F;stroke-width:0.5;" x1="1515" x2="1801.835" y1="119.0625" y2="119.0625"/><text fill="#000000" font-family="sans-serif" font-size="14" lengthAdjust="spacing" textLength="276.6641" x="1520" y="136.0576">part missionControl : MissionControlSW</text><text fill="#000000" font-family="sans-serif" font-size="14" lengthAdjust="spacing" textLength="276.835" x="1520" y="152.3545">part operatorWS : OperatorWorkstation</text><line style="stroke:#8FBC8F;stroke-width:0.5;" x1="1515" x2="1801.835" y1="159.6563" y2="159.6563"/></g><!--class SensorSuite--><g class="entity" data-entity="SensorSuite" data-source-line="95" data-uid="ent0027" id="entity_SensorSuite"><rect fill="#F0FFF0" height="121.4531" rx="2.5" ry="2.5" style="stroke:#8FBC8F;stroke-width:0.5;" width="126.8643" x="1595" y="342.7969"/><ellipse cx="1615.0058" cy="362.9297" fill="#ADD1B2" rx="11" ry="11" style="stroke:#181818;stroke-width:1;"/><path d="M1617.9746,368.5703 Q1617.3964,368.8672 1616.7558,369.0078 Q1616.1152,369.1641 1615.4121,369.1641 Q1612.9121,369.1641 1611.5839,367.5234 Q1610.2714,365.8672 1610.2714,362.7422 Q1610.2714,359.6172 1611.5839,357.9609 Q1612.9121,356.3047 1615.4121,356.3047 Q1616.1152,356.3047 1616.7558,356.4609 Q1617.4121,356.6172 1617.9746,356.9141 L1617.9746,359.6328 Q1617.3496,359.0547 1616.7558,358.7891 Q1616.1621,358.5078 1615.5371,358.5078 Q1614.1933,358.5078 1613.5058,359.5859 Q1612.8183,360.6484 1612.8183,362.7422 Q1612.8183,364.8359 1613.5058,365.9141 Q1614.1933,366.9766 1615.5371,366.9766 Q1616.1621,366.9766 1616.7558,366.7109 Q1617.3496,366.4297 1617.9746,365.8516 L1617.9746,368.5703 Z " fill="#000000"/><text fill="#000000" font-family="sans-serif" font-size="12" font-style="italic" lengthAdjust="spacing" textLength="46.6523" x="1648.6622" y="358.9355">&#171;block&#187;</text><text fill="#000000" font-family="sans-serif" font-size="14" lengthAdjust="spacing" textLength="83.7402" x="1630.1182" y="374.7607">SensorSuite</text><line style="stroke:#8FBC8F;stroke-width:0.5;" x1="1596" x2="1720.8643" y1="383.0625" y2="383.0625"/><ellipse cx="1606" cy="396.7109" fill="none" rx="3" ry="3" style="stroke:#038048;stroke-width:1;"/><text fill="#000000" font-family="sans-serif" font-size="14" lengthAdjust="spacing" textLength="95.751" x="1615" y="400.0576">EO/IR camera</text><ellipse cx="1606" cy="413.0078" fill="none" rx="3" ry="3" style="stroke:#038048;stroke-width:1;"/><text fill="#000000" font-family="sans-serif" font-size="14" lengthAdjust="spacing" textLength="86.1807" x="1615" y="416.3545">GNSS + IMU</text><ellipse cx="1606" cy="429.3047" fill="none" rx="3" ry="3" style="stroke:#038048;stroke-width:1;"/><text fill="#000000" font-family="sans-serif" font-size="14" lengthAdjust="spacing" textLength="64.9551" x="1615" y="432.6514">Altimeter</text><ellipse cx="1606" cy="445.6016" fill="none" rx="3" ry="3" style="stroke:#038048;stroke-width:1;"/><text fill="#000000" font-family="sans-serif" font-size="14" lengthAdjust="spacing" textLength="100.8643" x="1615" y="448.9482">Terrain sensor</text><line style="stroke:#8FBC8F;stroke-width:0.5;" x1="1596" x2="1720.8643" y1="456.25" y2="456.25"/></g><!--class AutonomySW--><g class="entity" data-entity="AutonomySW" data-source-line="102" data-uid="ent0028" id="entity_AutonomySW"><rect fill="#F0FFF0" height="121.4531" rx="2.5" ry="2.5" style="stroke:#8FBC8F;stroke-width:0.5;" width="163.8877" x="1576.5" y="796.7969"/><ellipse cx="1608.2814" cy="816.9297" fill="#ADD1B2" rx="11" ry="11" style="stroke:#181818;stroke-width:1;"/><path d="M1611.2501,822.5703 Q1610.672,822.8672 1610.0314,823.0078 Q1609.3908,823.1641 1608.6876,823.1641 Q1606.1876,823.1641 1604.8595,821.5234 Q1603.547,819.8672 1603.547,816.7422 Q1603.547,813.6172 1604.8595,811.9609 Q1606.1876,810.3047 1608.6876,810.3047 Q1609.3908,810.3047 1610.0314,810.4609 Q1610.6876,810.6172 1611.2501,810.9141 L1611.2501,813.6328 Q1610.6251,813.0547 1610.0314,812.7891 Q1609.4376,812.5078 1608.8126,812.5078 Q1607.4689,812.5078 1606.7814,813.5859 Q1606.0939,814.6484 1606.0939,816.7422 Q1606.0939,818.8359 1606.7814,819.9141 Q1607.4689,820.9766 1608.8126,820.9766 Q1609.4376,820.9766 1610.0314,820.7109 Q1610.6251,820.4297 1611.2501,819.8516 L1611.2501,822.5703 Z " fill="#000000"/><text fill="#000000" font-family="sans-serif" font-size="12" font-style="italic" lengthAdjust="spacing" textLength="46.6523" x="1649.9823" y="812.9355">&#171;block&#187;</text><text fill="#000000" font-family="sans-serif" font-size="14" lengthAdjust="spacing" textLength="94.5957" x="1626.0106" y="828.7607">AutonomySW</text><line style="stroke:#8FBC8F;stroke-width:0.5;" x1="1577.5" x2="1739.3877" y1="837.0625" y2="837.0625"/><ellipse cx="1587.5" cy="850.7109" fill="none" rx="3" ry="3" style="stroke:#038048;stroke-width:1;"/><text fill="#000000" font-family="sans-serif" font-size="14" lengthAdjust="spacing" textLength="106.3262" x="1596.5" y="854.0576">Search planner</text><ellipse cx="1587.5" cy="867.0078" fill="none" rx="3" ry="3" style="stroke:#038048;stroke-width:1;"/><text fill="#000000" font-family="sans-serif" font-size="14" lengthAdjust="spacing" textLength="137.8877" x="1596.5" y="870.3545">Obstacle avoidance</text><ellipse cx="1587.5" cy="883.3047" fill="none" rx="3" ry="3" style="stroke:#038048;stroke-width:1;"/><text fill="#000000" font-family="sans-serif" font-size="14" lengthAdjust="spacing" textLength="114.748" x="1596.5" y="886.6514">Victim detection</text><ellipse cx="1587.5" cy="899.6016" fill="none" rx="3" ry="3" style="stroke:#038048;stroke-width:1;"/><text fill="#000000" font-family="sans-serif" font-size="14" lengthAdjust="spacing" textLength="105.1982" x="1596.5" y="902.9482">Health monitor</text><line style="stroke:#8FBC8F;stroke-width:0.5;" x1="1577.5" x2="1739.3877" y1="910.25" y2="910.25"/></g><!--link Hiker to UC1--><g class="link" data-entity-1="Hiker" data-entity-2="UC1" data-source-line="59" data-uid="lnk14" id="link_Hiker_UC1"><path codeLine="59" d="M97.33,978.2969 C127.44,978.2969 165.25,978.2969 202.86,978.2969" fill="none" id="Hiker-to-UC1" style="stroke:#181818;stroke-width:1;"/><polygon fill="#181818" points="208.86,978.2969,199.86,974.2969,203.86,978.2969,199.86,982.2969,208.86,978.2969" style="stroke:#181818;stroke-width:1;"/><text fill="#000000" font-family="sans-serif" font-size="13" lengthAdjust="spacing" textLength="50.6733" x="128" y="974.3638">triggers</text></g><!--link RescueOperator to UC2--><g class="link" data-entity-1="RescueOperator" data-entity-2="UC2" data-source-line="60" data-uid="lnk15" id="link_RescueOperator_UC2"><path codeLine="60" d="M357.54,897.5469 C393.46,911.2269 431.8229,925.8413 470.3929,940.5313" fill="none" id="RescueOperator-to-UC2" style="stroke:#181818;stroke-width:1;"/><polygon fill="#181818" points="476,942.6669,469.0131,935.7255,471.3274,940.8873,466.1657,943.2016,476,942.6669" style="stroke:#181818;stroke-width:1;"/></g><!--link RescueOperator to UC3--><g class="link" data-entity-1="RescueOperator" data-entity-2="UC3" data-source-line="61" data-uid="lnk16" id="link_RescueOperator_UC3"><path codeLine="61" d="M357.79,875.6069 C434.41,882.0569 559.11,894.8469 665,916.2969 C708.68,925.1369 750.6488,936.6637 790.1388,948.6537" fill="none" id="RescueOperator-to-UC3" style="stroke:#181818;stroke-width:1;"/><polygon fill="#181818" points="795.88,950.3969,788.4303,943.9547,791.0957,948.9442,786.1061,951.6096,795.88,950.3969" style="stroke:#181818;stroke-width:1;"/></g><!--link RescueOperator to UC4--><g class="link" data-entity-1="RescueOperator" data-entity-2="UC4" data-source-line="62" data-uid="lnk17" id="link_RescueOperator_UC4"><path codeLine="62" d="M357.79,869.2469 C456.51,867.8269 639.72,865.2469 796,863.2969 C935.1,861.5569 1092.6803,859.8507 1177.3103,858.9507" fill="none" id="RescueOperator-to-UC4" style="stroke:#181818;stroke-width:1;"/><polygon fill="#181818" points="1183.31,858.8869,1174.268,854.9828,1178.3103,858.94,1174.353,862.9824,1183.31,858.8869" style="stroke:#181818;stroke-width:1;"/><text fill="#000000" font-family="sans-serif" font-size="13" lengthAdjust="spacing" textLength="52.6855" x="704.5" y="860.3638">optional</text></g><!--link UC1 to UC2--><g class="link" data-entity-1="UC1" data-entity-2="UC2" data-source-line="64" data-uid="lnk18" id="link_UC1_UC2"><path codeLine="64" d="M361.23,978.2969 C396.41,978.2969 432.67,978.2969 469.9,978.2969" fill="none" id="UC1-to-UC2" style="stroke:#181818;stroke-width:1;stroke-dasharray:7,7;"/><polygon fill="#181818" points="475.9,978.2969,466.9,974.2969,470.9,978.2969,466.9,982.2969,475.9,978.2969" style="stroke:#181818;stroke-width:1;"/><text fill="#000000" font-family="sans-serif" font-size="13" lengthAdjust="spacing" textLength="53.6758" x="392" y="974.3638">&#171;refine&#187;</text></g><!--link UC2 to UC3--><g class="link" data-entity-1="UC2" data-entity-2="UC3" data-source-line="65" data-uid="lnk19" id="link_UC2_UC3"><path codeLine="65" d="M665.35,978.2969 C706.87,978.2969 749.37,978.2969 789.89,978.2969" fill="none" id="UC2-to-UC3" style="stroke:#181818;stroke-width:1;stroke-dasharray:7,7;"/><polygon fill="#181818" points="795.89,978.2969,786.89,974.2969,790.89,978.2969,786.89,982.2969,795.89,978.2969" style="stroke:#181818;stroke-width:1;"/><text fill="#000000" font-family="sans-serif" font-size="13" lengthAdjust="spacing" textLength="69.7798" x="696" y="974.3638">&#171;includes&#187;</text></g><!--link UC2 to UC4--><g class="link" data-entity-1="UC2" data-entity-2="UC4" data-source-line="66" data-uid="lnk20" id="link_UC2_UC4"><path codeLine="66" d="M665.01,949.3269 C705.04,937.7369 752.5,925.0869 796,916.2969 C933.68,888.4369 1092.2153,871.5776 1177.2753,863.7376" fill="none" id="UC2-to-UC4" style="stroke:#181818;stroke-width:1;stroke-dasharray:7,7;"/><polygon fill="#181818" points="1183.25,863.1869,1173.9209,860.0298,1178.2711,863.6458,1174.6551,867.996,1183.25,863.1869" style="stroke:#181818;stroke-width:1;"/><text fill="#000000" font-family="sans-serif" font-size="13" lengthAdjust="spacing" textLength="61.1851" x="852" y="884.3638">&#171;extend&#187;</text></g><!--link UC3 to UC4--><g class="link" data-entity-1="UC3" data-entity-2="UC4" data-source-line="67" data-uid="lnk21" id="link_UC3_UC4"><path codeLine="67" d="M969.01,949.5469 C1035.33,927.2569 1119.7225,898.8881 1177.5725,879.4481" fill="none" id="UC3-to-UC4" style="stroke:#181818;stroke-width:1;stroke-dasharray:7,7;"/><polygon fill="#181818" points="1183.26,877.5369,1173.4547,876.6121,1178.5204,879.1296,1176.003,884.1954,1183.26,877.5369" style="stroke:#181818;stroke-width:1;"/><text fill="#000000" font-family="sans-serif" font-size="13" lengthAdjust="spacing" textLength="61.1851" x="1000" y="914.3638">&#171;extend&#187;</text></g><!--reverse link AlpsRescueSystem to DroneSubsystem--><g class="link" data-entity-1="AlpsRescueSystem" data-entity-2="DroneSubsystem" data-source-line="109" data-uid="lnk29" id="link_AlpsRescueSystem_DroneSubsystem"><path codeLine="109" d="M1521.769,285.765 C1489.749,298.745 1470.25,313.6769 1451.5,342.7969 C1422.02,388.5669 1422.97,541.4269 1451.5,587.7969 C1475.55,626.8769 1519.23,651.8769 1560.29,667.5769" fill="none" id="AlpsRescueSystem-backto-DroneSubsystem" style="stroke:#181818;stroke-width:1;"/><polygon fill="#181818" points="1532.89,281.2569,1525.8268,279.8039,1521.769,285.765,1528.8322,287.2179,1532.89,281.2569" style="stroke:#181818;stroke-width:1;"/></g><!--reverse link AlpsRescueSystem to ControlDevice--><g class="link" data-entity-1="AlpsRescueSystem" data-entity-2="ControlDevice" data-source-line="110" data-uid="lnk30" id="link_AlpsRescueSystem_ControlDevice"><path codeLine="110" d="M1521.769,285.765 C1489.749,298.745 1470.25,313.6769 1451.5,342.7969 C1422.39,388.0069 1422.39,418.5769 1451.5,463.7969 C1475.16,500.5269 1518.52,520.3169 1559.48,530.9669" fill="none" id="AlpsRescueSystem-backto-ControlDevice" style="stroke:#181818;stroke-width:1;"/><polygon fill="#181818" points="1532.89,281.2569,1525.8268,279.8039,1521.769,285.765,1528.8322,287.2179,1532.89,281.2569" style="stroke:#181818;stroke-width:1;"/></g><!--reverse link AlpsRescueSystem to RescueCenter--><g class="link" data-entity-1="AlpsRescueSystem" data-entity-2="RescueCenter" data-source-line="111" data-uid="lnk31" id="link_AlpsRescueSystem_RescueCenter"><path codeLine="111" d="M1658.5,190.6969 C1658.5,179.1169 1658.5,179.5369 1658.5,167.9569" fill="none" id="AlpsRescueSystem-backto-RescueCenter" style="stroke:#181818;stroke-width:1;"/><polygon fill="#181818" points="1658.5,202.6969,1662.5,196.6969,1658.5,190.6969,1654.5,196.6969,1658.5,202.6969" style="stroke:#181818;stroke-width:1;"/></g><!--reverse link DroneSubsystem to SensorSuite--><g class="link" data-entity-1="DroneSubsystem" data-entity-2="SensorSuite" data-source-line="112" data-uid="lnk32" id="link_DroneSubsystem_SensorSuite"><path codeLine="112" d="M1549.0814,663.2911 C1508.0214,647.5911 1475.55,626.8769 1451.5,587.7969 C1430.77,554.1069 1430.18,532.1069 1451.5,498.7969 C1482.86,449.7869 1546.46,425.5769 1594.93,413.8369" fill="none" id="DroneSubsystem-backto-SensorSuite" style="stroke:#181818;stroke-width:1;"/><polygon fill="#181818" points="1560.29,667.5769,1556.1143,661.6978,1549.0814,663.2911,1553.2571,669.1702,1560.29,667.5769" style="stroke:#181818;stroke-width:1;"/></g><!--reverse link DroneSubsystem to AutonomySW--><g class="link" data-entity-1="DroneSubsystem" data-entity-2="AutonomySW" data-source-line="113" data-uid="lnk33" id="link_DroneSubsystem_AutonomySW"><path codeLine="113" d="M1658.5,773.6269 C1658.5,785.3169 1658.5,785.0169 1658.5,796.7069" fill="none" id="DroneSubsystem-backto-AutonomySW" style="stroke:#181818;stroke-width:1;"/><polygon fill="#181818" points="1658.5,761.6269,1654.5,767.6269,1658.5,773.6269,1662.5,767.6269,1658.5,761.6269" style="stroke:#181818;stroke-width:1;"/></g><!--link R01 to AlpsRescueSystem--><g class="link" data-entity-1="R01" data-entity-2="AlpsRescueSystem" data-source-line="117" data-uid="lnk34" id="link_R01_AlpsRescueSystem"><path codeLine="117" d="M1388.52,259.1769 C1435.68,258.4969 1481.5006,257.8327 1526.9506,257.1827" fill="none" id="R01-to-AlpsRescueSystem" style="stroke:#181818;stroke-width:1;stroke-dasharray:7,7;"/><polygon fill="#181818" points="1532.95,257.0969,1523.8937,253.226,1527.9505,257.1684,1524.0081,261.2252,1532.95,257.0969" style="stroke:#181818;stroke-width:1;"/><text fill="#000000" font-family="sans-serif" font-size="13" lengthAdjust="spacing" textLength="58.3984" x="1422.5" y="254.3638">&#171;satisfy&#187;</text></g><!--link R02 to SensorSuite--><g class="link" data-entity-1="R02" data-entity-2="SensorSuite" data-source-line="118" data-uid="lnk35" id="link_R02_SensorSuite"><path codeLine="118" d="M1347.76,401.7969 C1425.8,402.1769 1523.5701,402.6484 1588.9601,402.9584" fill="none" id="R02-to-SensorSuite" style="stroke:#181818;stroke-width:1;stroke-dasharray:7,7;"/><polygon fill="#181818" points="1594.96,402.9869,1585.9791,398.9443,1589.9601,402.9632,1585.9411,406.9442,1594.96,402.9869" style="stroke:#181818;stroke-width:1;"/><text fill="#000000" font-family="sans-serif" font-size="13" lengthAdjust="spacing" textLength="58.3984" x="1422.5" y="398.3638">&#171;satisfy&#187;</text></g><!--link R03 to ControlDevice--><g class="link" data-entity-1="R03" data-entity-2="ControlDevice" data-source-line="119" data-uid="lnk36" id="link_R03_ControlDevice"><path codeLine="119" d="M1377.53,541.9469 C1436.79,542.2269 1499.0901,542.5281 1553.3801,542.7881" fill="none" id="R03-to-ControlDevice" style="stroke:#181818;stroke-width:1;stroke-dasharray:7,7;"/><polygon fill="#181818" points="1559.38,542.8169,1550.3993,538.7738,1554.3801,542.7929,1550.3609,546.7737,1559.38,542.8169" style="stroke:#181818;stroke-width:1;"/><text fill="#000000" font-family="sans-serif" font-size="13" lengthAdjust="spacing" textLength="58.3984" x="1422.5" y="538.3638">&#171;satisfy&#187;</text></g><!--link R03 to DroneSubsystem--><g class="link" data-entity-1="R03" data-entity-2="DroneSubsystem" data-source-line="120" data-uid="lnk37" id="link_R03_DroneSubsystem"><path codeLine="120" d="M1377.58,579.8769 C1391.12,588.3569 1403.39,598.6969 1413,611.2969 C1430.66,634.4269 1399.86,656.2869 1421,676.2969 C1457.31,710.6669 1506.4495,716.5002 1554.3395,712.6302" fill="none" id="R03-to-DroneSubsystem" style="stroke:#181818;stroke-width:1;stroke-dasharray:7,7;"/><polygon fill="#181818" points="1560.32,712.1469,1551.0271,708.8848,1555.3362,712.5496,1551.6714,716.8588,1560.32,712.1469" style="stroke:#181818;stroke-width:1;"/><text fill="#000000" font-family="sans-serif" font-size="13" lengthAdjust="spacing" textLength="58.3984" x="1422.5" y="672.3638">&#171;satisfy&#187;</text></g><!--link R04 to AutonomySW--><g class="link" data-entity-1="R04" data-entity-2="AutonomySW" data-source-line="121" data-uid="lnk38" id="link_R04_AutonomySW"><path codeLine="121" d="M1366.45,733.8569 C1434.4,762.6769 1511.1763,795.234 1570.8963,820.564" fill="none" id="R04-to-AutonomySW" style="stroke:#181818;stroke-width:1;stroke-dasharray:7,7;"/><polygon fill="#181818" points="1576.42,822.9069,1569.6964,815.7101,1571.8169,820.9545,1566.5726,823.0751,1576.42,822.9069" style="stroke:#181818;stroke-width:1;"/><text fill="#000000" font-family="sans-serif" font-size="13" lengthAdjust="spacing" textLength="58.3984" x="1422.5" y="755.3638">&#171;satisfy&#187;</text></g><!--link UC2 to DroneSubsystem--><g class="link" data-entity-1="UC2" data-entity-2="DroneSubsystem" data-source-line="123" data-uid="lnk39" id="link_UC2_DroneSubsystem"><path codeLine="123" d="M665.03,1012.6269 C834.37,1068.1869 1194.41,1155.1469 1413,982.2969 C1431.92,967.3269 1473.96,797.3169 1490,779.2969 C1509.06,757.8669 1529.3189,743.6604 1554.7589,730.6404" fill="none" id="UC2-to-DroneSubsystem" style="stroke:#181818;stroke-width:1;stroke-dasharray:7,7;"/><polygon fill="#181818" points="1560.1,727.9069,1550.2659,728.4464,1555.6491,730.1848,1553.9107,735.568,1560.1,727.9069" style="stroke:#181818;stroke-width:1;"/><text fill="#000000" font-family="sans-serif" font-size="13" lengthAdjust="spacing" textLength="59.2617" x="1001" y="1078.3638">&#171;realize&#187;</text></g><!--link UC3 to AutonomySW--><g class="link" data-entity-1="UC3" data-entity-2="AutonomySW" data-source-line="124" data-uid="lnk40" id="link_UC3_AutonomySW"><path codeLine="124" d="M969.18,977.9169 C1074.61,976.0269 1258.6,968.0669 1413,937.2969 C1468.74,926.1869 1523.8327,908.4015 1570.8327,891.2715" fill="none" id="UC3-to-AutonomySW" style="stroke:#181818;stroke-width:1;stroke-dasharray:7,7;"/><polygon fill="#181818" points="1576.47,889.2169,1566.6444,888.5406,1571.7723,890.929,1569.3839,896.0569,1576.47,889.2169" style="stroke:#181818;stroke-width:1;"/><text fill="#000000" font-family="sans-serif" font-size="13" lengthAdjust="spacing" textLength="59.2617" x="1212" y="933.3638">&#171;realize&#187;</text></g><!--link UC4 to ControlDevice--><g class="link" data-entity-1="UC4" data-entity-2="ControlDevice" data-source-line="125" data-uid="lnk41" id="link_UC4_ControlDevice"><path codeLine="125" d="M1299.71,837.8869 C1338.61,820.8069 1387.47,792.3869 1413,750.2969 C1434.97,714.0569 1400.17,692.1869 1421,655.2969 C1439.62,622.3069 1456.6,623.1469 1490,605.2969 C1511.74,593.6769 1530.5162,585.4047 1553.8162,576.6147" fill="none" id="UC4-to-ControlDevice" style="stroke:#181818;stroke-width:1;stroke-dasharray:7,7;"/><polygon fill="#181818" points="1559.43,574.4969,1549.5974,573.9311,1554.7518,576.2617,1552.4212,581.4162,1559.43,574.4969" style="stroke:#181818;stroke-width:1;"/><text fill="#000000" font-family="sans-serif" font-size="13" lengthAdjust="spacing" textLength="59.2617" x="1422" y="606.3638">&#171;realize&#187;</text></g><!--SRC=[ZLPjRzis4FwkNt78W7LTuDIn7Gm9KWEU4pS5dAMmwkPZmKXdXpD5QYJbr1twttSavUZ5oj8lbibxTC-zF3pn3SGxSpk7xQ2t4cohDAQWjgYt79_0FZ8Bkf06dhXzX5mmBk6JOD8kwPNVf0ByPb5B9e3BH1GfchSdqHjO5FB2eQKjCW5cPpAn7NpTRtp5RopB1Pxaj8WijmAVWu2xFNSF9Y8ti42J50XNMacC1AuiM0MQhnyjf5nZOhcIKMGsNEPCimnobcpO6cEx8w_EpkHQO0sG26OC_1i1_4dGjLQ5JATAA7rv-I1KiXcFuOQuTbVuv31AfwXRzYkcDp6o3nfHTldH-4z1iMKeBQ5_cSrcPrT_j9srGDFpyqc_t-MjC9WmWmvqVJxhpsPjJpN0O7Osk-v7FwAeh0CSBIeUS-Jp3XLOz4-X7OMp0l0KtjDxlVxfaLzRQhBRcQk4MQHE_rqubJpo3MguV0-dPv1n6R36CbiOGkTQvSfWIhi_Qfo3rpW7JSwx77KWXPLQlqiBi_avek5hHCCcqIsJ1SdOIL_p5864p-GEBC_mvmX7hn6EMeHSyen_Hq2vvQHkzv8xHnbrpluVPRsvIuCmfTutEdiJ6dD9VfGUZwiO_L4A5LLTWENKIQAIKqY0TlqpHfdIcJDM8s4DNzEnRzHWEHrqlZxmppahPF88lu9aMxvsFKtzcMvw67Pw69O1CEqzK7-avQjTa63BmwZJmyW_ooOdIbgjGl3q4-hLwurz0Ix0qdXPepPaQfKiO0Ol6OOl6KRaLULkL5798bzIE3dnliZYTBFY4dqdt5Om3RrfFrTRnf4tkkahqz8qx3RLvJ9NQvvG0MAhYyJIAQxBnetR43qDOuiPL0ClL97cfmrD8mO_aEFYmNXiPIzhIuXf-7U5MvvW1T2UOaeTfA9VbFKAotr3GZnDXiDe53ahSi7bnf5bwIVQg2ofUfAbxGlfHLLM5mHfa0oJmYgfibryNraCIgEq8Mli_yK5jrXFBykCJuwUS_BVZBcHStS1BNiGQ5tc1Qai_UoNbPdbULMxIPut_TUhrUq-uyQGpgRFRRXjRDHJLQL8xsE2xHLxh_J6pHttMMrGryfnm7nyVVVkum8Ibf6JiFFXhpY6O_XukmphYN2ZD3IPbfzfpBhBH2Xtawbgoo5HEGFSLKBkVTqzKC09VUxf-i9J9akr7N_XT3l882NMfCo7Tc-G2RhBP4foMp4VYF_ttg74kq1jbNTXMXfl2Pi0JQaTscj2fMZfVbLzPy1GhyoA-GpfavK23R-UctvqqfZWtqChtTVUZOU3yDoi22vsD2pS1zh1wirk8yASQIgz6zDAf0qQXOYgRZS1qNxQTRW9gRc9kPzxBJTrmEY5W9yn_m40]--></g></svg>