<svg xmlns="http://www.w3.org/2000/svg" xmlns:xlink="http://www.w3.org/1999/xlink" contentStyleType="text/css" data-diagram-type="CLASS" height="432px" preserveAspectRatio="none" style="width:940px;height:432px;background:#FFFFFF;" version="1.1" viewBox="0 0 940 432" width="940px" zoomAndPan="magnify"><title>SysML v2 Parametric Stub for R-01</title><defs/><g><g class="title" data-source-line="149"><text fill="#000000" font-family="sans-serif" font-size="14" font-weight="bold" lengthAdjust="spacing" textLength="275.9189" x="325.0796" y="22.9951">SysML v2 Parametric Stub for R-01</text></g><!--class TTL--><g class="entity" data-entity="TTL" data-source-line="157" data-uid="ent0002" id="entity_TTL"><rect fill="#F4F4F4" height="154.0469" rx="2.5" ry="2.5" style="stroke:#777777;stroke-width:0.5;" width="488.8203" x="7" y="169.7969"/><ellipse cx="197.8833" cy="189.9297" fill="#ADD1B2" rx="11" ry="11" style="stroke:#181818;stroke-width:1;"/><path d="M200.8521,195.5703 Q200.2739,195.8672 199.6333,196.0078 Q198.9927,196.1641 198.2896,196.1641 Q195.7896,196.1641 194.4614,194.5234 Q193.1489,192.8672 193.1489,189.7422 Q193.1489,186.6172 194.4614,184.9609 Q195.7896,183.3047 198.2896,183.3047 Q198.9927,183.3047 199.6333,183.4609 Q200.2896,183.6172 200.8521,183.9141 L200.8521,186.6328 Q200.2271,186.0547 199.6333,185.7891 Q199.0396,185.5078 198.4146,185.5078 Q197.0708,185.5078 196.3833,186.5859 Q195.6958,187.6484 195.6958,189.7422 Q195.6958,191.8359 196.3833,192.9141 Q197.0708,193.9766 198.4146,193.9766 Q199.0396,193.9766 199.6333,193.7109 Q200.2271,193.4297 200.8521,192.8516 L200.8521,195.5703 Z " fill="#000000"/><text fill="#000000" font-family="sans-serif" font-size="12" font-style="italic" lengthAdjust="spacing" textLength="75.2461" x="230.0371" y="185.9355">&#171;constraint&#187;</text><text fill="#000000" font-family="sans-serif" font-size="14" lengthAdjust="spacing" textLength="98.5537" x="218.3833" y="201.7607">TimeToLocate</text><line style="stroke:#777777;stroke-width:0.5;" x1="8" x2="494.8203" y1="210.0625" y2="210.0625"/><text fill="#000000" font-family="sans-serif" font-size="14" lengthAdjust="spacing" textLength="190.4629" x="13" y="227.0576">parameter t_dispatch : min</text><text fill="#000000" font-family="sans-serif" font-size="14" lengthAdjust="spacing" textLength="175.7246" x="13" y="243.3545">parameter t_flight   : min</text><text fill="#000000" font-family="sans-serif" font-size="14" lengthAdjust="spacing" textLength="206.623" x="13" y="259.6514">parameter t_processing : min</text><text fill="#000000" font-family="sans-serif" font-size="14" lengthAdjust="spacing" textLength="182.6016" x="13" y="275.9482">parameter t_locate   : min</text><line style="stroke:#777777;stroke-width:1;" x1="8" x2="494.8203" y1="283.25" y2="283.25"/><text fill="#000000" font-family="sans-serif" font-size="14" lengthAdjust="spacing" textLength="476.8203" x="13" y="300.2451">constraint totalTime: t_locate = t_dispatch + t_flight + t_processing</text><text fill="#000000" font-family="sans-serif" font-size="14" lengthAdjust="spacing" textLength="255.8623" x="13" y="316.542">constraint threshold: t_locate &lt;= 15</text></g><!--class R01_param--><g class="entity" data-entity="R01_param" data-source-line="167" data-uid="ent0003" id="entity_R01_param"><rect fill="#F1F1F1" height="88.8594" rx="2.5" ry="2.5" style="stroke:#181818;stroke-width:0.5;" width="294.0781" x="639" y="44.2969"/><ellipse cx="739.0967" cy="64.4297" fill="#ADD1B2" rx="11" ry="11" style="stroke:#181818;stroke-width:1;"/><path d="M742.0654,70.0703 Q741.4873,70.3672 740.8467,70.5078 Q740.2061,70.6641 739.5029,70.6641 Q737.0029,70.6641 735.6748,69.0234 Q734.3623,67.3672 734.3623,64.2422 Q734.3623,61.1172 735.6748,59.4609 Q737.0029,57.8047 739.5029,57.8047 Q740.2061,57.8047 740.8467,57.9609 Q741.5029,58.1172 742.0654,58.4141 L742.0654,61.1328 Q741.4404,60.5547 740.8467,60.2891 Q740.2529,60.0078 739.6279,60.0078 Q738.2842,60.0078 737.5967,61.0859 Q736.9092,62.1484 736.9092,64.2422 Q736.9092,66.3359 737.5967,67.4141 Q738.2842,68.4766 739.6279,68.4766 Q740.2529,68.4766 740.8467,68.2109 Q741.4404,67.9297 742.0654,67.3516 L742.0654,70.0703 Z " fill="#000000"/><text fill="#000000" font-family="sans-serif" font-size="12" font-style="italic" lengthAdjust="spacing" textLength="89.3848" x="757.5967" y="60.4355">&#171;requirement&#187;</text><text fill="#000000" font-family="sans-serif" font-size="14" lengthAdjust="spacing" textLength="79.9805" x="762.2988" y="76.2607">R01_param</text><line style="stroke:#181818;stroke-width:0.5;" x1="640" x2="932.0781" y1="84.5625" y2="84.5625"/><text fill="#000000" font-family="sans-serif" font-size="14" lengthAdjust="spacing" textLength="78.8799" x="645" y="101.5576">id = "R-01"</text><text fill="#000000" font-family="sans-serif" font-size="14" lengthAdjust="spacing" textLength="282.0781" x="645" y="117.8545">text = "Locate injured hiker &lt;= 15 min"</text><line style="stroke:#181818;stroke-width:0.5;" x1="640" x2="932.0781" y1="125.1563" y2="125.1563"/></g><!--class MissionControlSW--><g class="entity" data-entity="MissionControlSW" data-source-line="172" data-uid="ent0004" id="entity_MissionControlSW"><rect fill="#F1F1F1" height="56.2656" rx="2.5" ry="2.5" style="stroke:#181818;stroke-width:0.5;" width="157.5283" x="707" y="168.7969"/><ellipse cx="722" cy="188.9297" fill="#ADD1B2" rx="11" ry="11" style="stroke:#181818;stroke-width:1;"/><path d="M724.9688,194.5703 Q724.3906,194.8672 723.75,195.0078 Q723.1094,195.1641 722.4063,195.1641 Q719.9063,195.1641 718.5781,193.5234 Q717.2656,191.8672 717.2656,188.7422 Q717.2656,185.6172 718.5781,183.9609 Q719.9063,182.3047 722.4063,182.3047 Q723.1094,182.3047 723.75,182.4609 Q724.4063,182.6172 724.9688,182.9141 L724.9688,185.6328 Q724.3438,185.0547 723.75,184.7891 Q723.1563,184.5078 722.5313,184.5078 Q721.1875,184.5078 720.5,185.5859 Q719.8125,186.6484 719.8125,188.7422 Q719.8125,190.8359 720.5,191.9141 Q721.1875,192.9766 722.5313,192.9766 Q723.1563,192.9766 723.75,192.7109 Q724.3438,192.4297 724.9688,191.8516 L724.9688,194.5703 Z " fill="#000000"/><text fill="#000000" font-family="sans-serif" font-size="12" font-style="italic" lengthAdjust="spacing" textLength="46.6523" x="775.438" y="184.9355">&#171;block&#187;</text><text fill="#000000" font-family="sans-serif" font-size="14" lengthAdjust="spacing" textLength="125.5283" x="736" y="200.7607">MissionControlSW</text><line style="stroke:#181818;stroke-width:0.5;" x1="708" x2="863.5283" y1="209.0625" y2="209.0625"/><line style="stroke:#181818;stroke-width:0.5;" x1="708" x2="863.5283" y1="217.0625" y2="217.0625"/></g><!--class AutonomySW_param--><g class="entity" data-entity="AutonomySW_param" data-source-line="173" data-uid="ent0005" id="entity_AutonomySW_param"><rect fill="#F1F1F1" height="72.5625" rx="2.5" ry="2.5" style="stroke:#181818;stroke-width:0.5;" width="179.0342" x="696.5" y="260.2969"/><ellipse cx="711.5" cy="280.4297" fill="#ADD1B2" rx="11" ry="11" style="stroke:#181818;stroke-width:1;"/><path d="M714.4688,286.0703 Q713.8906,286.3672 713.25,286.5078 Q712.6094,286.6641 711.9063,286.6641 Q709.4063,286.6641 708.0781,285.0234 Q706.7656,283.3672 706.7656,280.2422 Q706.7656,277.1172 708.0781,275.4609 Q709.4063,273.8047 711.9063,273.8047 Q712.6094,273.8047 713.25,273.9609 Q713.9063,274.1172 714.4688,274.4141 L714.4688,277.1328 Q713.8438,276.5547 713.25,276.2891 Q712.6563,276.0078 712.0313,276.0078 Q710.6875,276.0078 710,277.0859 Q709.3125,278.1484 709.3125,280.2422 Q709.3125,282.3359 710,283.4141 Q710.6875,284.4766 712.0313,284.4766 Q712.6563,284.4766 713.25,284.2109 Q713.8438,283.9297 714.4688,283.3516 L714.4688,286.0703 Z " fill="#000000"/><text fill="#000000" font-family="sans-serif" font-size="12" font-style="italic" lengthAdjust="spacing" textLength="46.6523" x="775.6909" y="276.4355">&#171;block&#187;</text><text fill="#000000" font-family="sans-serif" font-size="14" lengthAdjust="spacing" textLength="147.0342" x="725.5" y="292.2607">AutonomySW_param</text><line style="stroke:#181818;stroke-width:0.5;" x1="697.5" x2="874.5342" y1="300.5625" y2="300.5625"/><ellipse cx="707.5" cy="314.2109" fill="none" rx="3" ry="3" style="stroke:#038048;stroke-width:1;"/><text fill="#000000" font-family="sans-serif" font-size="14" lengthAdjust="spacing" textLength="89.749" x="716.5" y="317.5576">path planner</text><line style="stroke:#181818;stroke-width:0.5;" x1="697.5" x2="874.5342" y1="324.8594" y2="324.8594"/></g><!--class OnboardCompute--><g class="entity" data-entity="OnboardCompute" data-source-line="176" data-uid="ent0006" id="entity_OnboardCompute"><rect fill="#F1F1F1" height="56.2656" rx="2.5" ry="2.5" style="stroke:#181818;stroke-width:0.5;" width="156.4072" x="708" y="368.7969"/><ellipse cx="723" cy="388.9297" fill="#ADD1B2" rx="11" ry="11" style="stroke:#181818;stroke-width:1;"/><path d="M725.9688,394.5703 Q725.3906,394.8672 724.75,395.0078 Q724.1094,395.1641 723.4063,395.1641 Q720.9063,395.1641 719.5781,393.5234 Q718.2656,391.8672 718.2656,388.7422 Q718.2656,385.6172 719.5781,383.9609 Q720.9063,382.3047 723.4063,382.3047 Q724.1094,382.3047 724.75,382.4609 Q725.4063,382.6172 725.9688,382.9141 L725.9688,385.6328 Q725.3438,385.0547 724.75,384.7891 Q724.1563,384.5078 723.5313,384.5078 Q722.1875,384.5078 721.5,385.5859 Q720.8125,386.6484 720.8125,388.7422 Q720.8125,390.8359 721.5,391.9141 Q722.1875,392.9766 723.5313,392.9766 Q724.1563,392.9766 724.75,392.7109 Q725.3438,392.4297 725.9688,391.8516 L725.9688,394.5703 Z " fill="#000000"/><text fill="#000000" font-family="sans-serif" font-size="12" font-style="italic" lengthAdjust="spacing" textLength="46.6523" x="775.8774" y="384.9355">&#171;block&#187;</text><text fill="#000000" font-family="sans-serif" font-size="14" lengthAdjust="spacing" textLength="124.4072" x="737" y="400.7607">OnboardCompute</text><line style="stroke:#181818;stroke-width:0.5;" x1="709" x2="863.4072" y1="409.0625" y2="409.0625"/><line style="stroke:#181818;stroke-width:0.5;" x1="709" x2="863.4072" y1="417.0625" y2="417.0625"/></g><!--link TTL to R01_param--><g class="link" data-entity-1="TTL" data-entity-2="R01_param" data-source-line="178" data-uid="lnk7" id="link_TTL_R01_param"><path codeLine="178" d="M496.15,174.4969 C544.9,160.0369 588.9078,146.9834 633.0978,133.8734" fill="none" id="TTL-to-R01_param" style="stroke:#181818;stroke-width:1;stroke-dasharray:7,7;"/><polygon fill="#181818" points="638.85,132.1669,629.084,130.8919,634.0565,133.589,631.3594,138.5615,638.85,132.1669" style="stroke:#181818;stroke-width:1;"/><text fill="#000000" font-family="sans-serif" font-size="13" lengthAdjust="spacing" textLength="52.8252" x="541.5" y="140.8638">&#171;verify&#187;</text></g><!--link TTL to MissionControlSW--><g class="link" data-entity-1="TTL" data-entity-2="MissionControlSW" data-source-line="179" data-uid="lnk8" id="link_TTL_MissionControlSW"><path codeLine="179" d="M496.15,223.9169 C572.29,216.7669 650.9,209.3869 706.85,204.1369" fill="none" id="TTL-MissionControlSW" style="stroke:#181818;stroke-width:1;stroke-dasharray:7,7;"/><text fill="#000000" font-family="sans-serif" font-size="13" lengthAdjust="spacing" textLength="66.936" x="534.5" y="210.8638">t_dispatch</text></g><!--link TTL to AutonomySW_param--><g class="link" data-entity-1="TTL" data-entity-2="AutonomySW_param" data-source-line="180" data-uid="lnk9" id="link_TTL_AutonomySW_param"><path codeLine="180" d="M496.15,269.6769 C567.63,276.3869 641.29,283.3069 696.34,288.4769" fill="none" id="TTL-AutonomySW_param" style="stroke:#181818;stroke-width:1;stroke-dasharray:7,7;"/><text fill="#000000" font-family="sans-serif" font-size="13" lengthAdjust="spacing" textLength="44.9858" x="545.5" y="269.8638">t_flight</text></g><!--link TTL to OnboardCompute--><g class="link" data-entity-1="TTL" data-entity-2="OnboardCompute" data-source-line="181" data-uid="lnk10" id="link_TTL_OnboardCompute"><path codeLine="181" d="M496.15,315.4269 C572.7,336.9969 651.75,359.2569 707.76,375.0369" fill="none" id="TTL-OnboardCompute" style="stroke:#181818;stroke-width:1;stroke-dasharray:7,7;"/><text fill="#000000" font-family="sans-serif" font-size="13" lengthAdjust="spacing" textLength="81.9419" x="527" y="322.8638">t_processing</text></g><!--SRC=[RLBHQjj047pNLopger68IqD1A8BMq2U7bjYGXrB2MRUshZxTgdkh45FoxxcJOajnh0F1iREpCxCdHYp2wk3lbl3q6NufLWqAcmfMqcrWImptsVKyiRWL408skrf06yPA3BaayNlZsjW5bLNUm_y4uBkgzZkcpka5MUAYgCXvOMMSb2Ly-l4bdeWZriWNCL_xBtb9ae4sNPi6rxIaIWcce3oirqiuwugpsy41CiYZDhvLKjMGGsFSMN5hUojmiTWoLUYzSRkBPTlBcFHcMVYDMa9IecoKd8_eswcYsQXWzcxU6K_Dw6koUi9JtCByPapc_dh-E2oWA1Z_TM4r3PxYC3hCJUCAqt0JV9Pu7s84u_vsZ1fgim-sUjxe9nt9xqmGHMv1JfZiwY7Cs0GP-x9y0tphX1mrXzN3ISGRe1y_2svhQAro3ZdG3aq_tOOKXyVHj5qqTE9CubAptrhv6lMVh9oOomFi2Tbi3m4NOLTN7zNbauYFe0yAyrFqHyYPdlpTGbu1]--></g></svg>