<svg xmlns="http://www.w3.org/2000/svg" xmlns:xlink="http://www.w3.org/1999/xlink" contentStyleType="text/css" data-diagram-type="ACTIVITY" height="560px" preserveAspectRatio="none" style="width:446px;height:560px;background:#FFFFFF;" version="1.1" viewBox="0 0 446 560" width="446px" zoomAndPan="magnify"><title>SysML v2 Behavior (Activity) - Locate Injured Hiker</title><defs/><g><g class="title" data-source-line="129"><text fill="#000000" font-family="sans-serif" font-size="14" font-weight="bold" lengthAdjust="spacing" textLength="403.4434" x="20" y="32.9951">SysML v2 Behavior (Activity) - Locate Injured Hiker</text></g><ellipse cx="229.5366" cy="57.2969" fill="#222222" rx="10" ry="10" style="stroke:#222222;stroke-width:1;"/><rect fill="#F1F1F1" height="33.9688" rx="12.5" ry="12.5" style="stroke:#181818;stroke-width:0.5;" width="195.3477" x="131.8628" y="87.2969"/><text fill="#000000" font-family="sans-serif" font-size="12" lengthAdjust="spacing" textLength="175.3477" x="141.8628" y="108.4355">Receive distress signal (UC1)</text><rect fill="#F1F1F1" height="33.9688" rx="12.5" ry="12.5" style="stroke:#181818;stroke-width:0.5;" width="147.7813" x="155.646" y="141.2656"/><text fill="#000000" font-family="sans-serif" font-size="12" lengthAdjust="spacing" textLength="127.7813" x="165.646" y="162.4043">Estimate search area</text><rect fill="#F1F1F1" height="33.9688" rx="12.5" ry="12.5" style="stroke:#181818;stroke-width:0.5;" width="140.123" x="159.4751" y="195.2344"/><text fill="#000000" font-family="sans-serif" font-size="12" lengthAdjust="spacing" textLength="120.123" x="169.4751" y="216.373">Launch drone (UC2)</text><rect fill="#555555" height="6" rx="2.5" ry="2.5" style="stroke:#555555;stroke-width:1;" width="361.9688" x="48.5522" y="249.2031"/><rect fill="#F1F1F1" height="33.9688" rx="12.5" ry="12.5" style="stroke:#181818;stroke-width:0.5;" width="129.3945" x="62.5522" y="275.2031"/><text fill="#000000" font-family="sans-serif" font-size="12" lengthAdjust="spacing" textLength="109.3945" x="72.5522" y="296.3418">Fly search pattern</text><rect fill="#F1F1F1" height="33.9688" rx="12.5" ry="12.5" style="stroke:#181818;stroke-width:0.5;" width="176.5742" x="219.9468" y="275.2031"/><text fill="#000000" font-family="sans-serif" font-size="12" lengthAdjust="spacing" textLength="156.5742" x="229.9468" y="296.3418">Stream video + telemetry</text><rect fill="#555555" height="6" rx="2.5" ry="2.5" style="stroke:#555555;stroke-width:1;" width="361.9688" x="48.5522" y="329.1719"/><polygon fill="#F1F1F1" points="183.0417,355.1719,276.0315,355.1719,288.0315,367.1719,276.0315,379.1719,183.0417,379.1719,171.0417,367.1719,183.0417,355.1719" style="stroke:#181818;stroke-width:0.5;"/><text fill="#000000" font-family="sans-serif" font-size="11" lengthAdjust="spacing" textLength="92.9897" x="183.0417" y="370.98">Victim detected?</text><text fill="#000000" font-family="sans-serif" font-size="11" lengthAdjust="spacing" textLength="19.0083" x="152.0334" y="364.5776">yes</text><text fill="#000000" font-family="sans-serif" font-size="11" lengthAdjust="spacing" textLength="13.7017" x="288.0315" y="364.5776">no</text><rect fill="#F1F1F1" height="33.9688" rx="12.5" ry="12.5" style="stroke:#181818;stroke-width:0.5;" width="191.5977" x="35.9224" y="389.1719"/><text fill="#000000" font-family="sans-serif" font-size="12" lengthAdjust="spacing" textLength="171.5977" x="45.9224" y="410.3105">Send coordinates + imagery</text><rect fill="#F1F1F1" height="33.9688" rx="12.5" ry="12.5" style="stroke:#181818;stroke-width:0.5;" width="142.0742" x="60.6841" y="443.1406"/><text fill="#000000" font-family="sans-serif" font-size="12" lengthAdjust="spacing" textLength="122.0742" x="70.6841" y="464.2793">Notify rescue center</text><rect fill="#F1F1F1" height="33.9688" rx="12.5" ry="12.5" style="stroke:#181818;stroke-width:0.5;" width="159.6641" x="247.52" y="389.1719"/><text fill="#000000" font-family="sans-serif" font-size="12" lengthAdjust="spacing" textLength="139.6641" x="257.52" y="410.3105">Expand search corridor</text><polygon fill="#F1F1F1" points="229.5366,483.1094,241.5366,495.1094,229.5366,507.1094,217.5366,495.1094,229.5366,483.1094" style="stroke:#181818;stroke-width:0.5;"/><ellipse cx="229.5366" cy="538.1094" fill="none" rx="11" ry="11" style="stroke:#222222;stroke-width:1;"/><ellipse cx="229.5366" cy="538.1094" fill="#222222" rx="6" ry="6" style="stroke:#222222;stroke-width:1;"/><line style="stroke:#181818;stroke-width:1;" x1="229.5366" x2="229.5366" y1="67.2969" y2="87.2969"/><polygon fill="#181818" points="225.5366,77.2969,229.5366,87.2969,233.5366,77.2969,229.5366,81.2969" style="stroke:#181818;stroke-width:1;"/><line style="stroke:#181818;stroke-width:1;" x1="229.5366" x2="229.5366" y1="121.2656" y2="141.2656"/><polygon fill="#181818" points="225.5366,131.2656,229.5366,141.2656,233.5366,131.2656,229.5366,135.2656" style="stroke:#181818;stroke-width:1;"/><line style="stroke:#181818;stroke-width:1;" x1="229.5366" x2="229.5366" y1="175.2344" y2="195.2344"/><polygon fill="#181818" points="225.5366,185.2344,229.5366,195.2344,233.5366,185.2344,229.5366,189.2344" style="stroke:#181818;stroke-width:1;"/><line style="stroke:#181818;stroke-width:1;" x1="127.2495" x2="127.2495" y1="255.2031" y2="275.2031"/><polygon fill="#181818" points="123.2495,265.2031,127.2495,275.2031,131.2495,265.2031,127.2495,269.2031" style="stroke:#181818;stroke-width:1;"/><line style="stroke:#181818;stroke-width:1;" x1="308.2339" x2="308.2339" y1="255.2031" y2="275.2031"/><polygon fill="#181818" points="304.2339,265.2031,308.2339,275.2031,312.2339,265.2031,308.2339,269.2031" style="stroke:#181818;stroke-width:1;"/><line style="stroke:#181818;stroke-width:1;" x1="127.2495" x2="127.2495" y1="309.1719" y2="329.1719"/><polygon fill="#181818" points="123.2495,319.1719,127.2495,329.1719,131.2495,319.1719,127.2495,323.1719" style="stroke:#181818;stroke-width:1;"/><line style="stroke:#181818;stroke-width:1;" x1="308.2339" x2="308.2339" y1="309.1719" y2="329.1719"/><polygon fill="#181818" points="304.2339,319.1719,308.2339,329.1719,312.2339,319.1719,308.2339,323.1719" style="stroke:#181818;stroke-width:1;"/><line style="stroke:#181818;stroke-width:1;" x1="229.5366" x2="229.5366" y1="229.2031" y2="249.2031"/><polygon fill="#181818" points="225.5366,239.2031,229.5366,249.2031,233.5366,239.2031,229.5366,243.2031" style="stroke:#181818;stroke-width:1;"/><line style="stroke:#181818;stroke-width:1;" x1="131.7212" x2="131.7212" y1="423.1406" y2="443.1406"/><polygon fill="#181818" points="127.7212,433.1406,131.7212,443.1406,135.7212,433.1406,131.7212,437.1406" style="stroke:#181818;stroke-width:1;"/><line style="stroke:#181818;stroke-width:1;" x1="171.0417" x2="131.7212" y1="367.1719" y2="367.1719"/><line style="stroke:#181818;stroke-width:1;" x1="131.7212" x2="131.7212" y1="367.1719" y2="389.1719"/><polygon fill="#181818" points="127.7212,379.1719,131.7212,389.1719,135.7212,379.1719,131.7212,383.1719" style="stroke:#181818;stroke-width:1;"/><line style="stroke:#181818;stroke-width:1;" x1="288.0315" x2="327.3521" y1="367.1719" y2="367.1719"/><line style="stroke:#181818;stroke-width:1;" x1="327.3521" x2="327.3521" y1="367.1719" y2="389.1719"/><polygon fill="#181818" points="323.3521,379.1719,327.3521,389.1719,331.3521,379.1719,327.3521,383.1719" style="stroke:#181818;stroke-width:1;"/><line style="stroke:#181818;stroke-width:1;" x1="131.7212" x2="131.7212" y1="477.1094" y2="495.1094"/><line style="stroke:#181818;stroke-width:1;" x1="131.7212" x2="217.5366" y1="495.1094" y2="495.1094"/><polygon fill="#181818" points="207.5366,491.1094,217.5366,495.1094,207.5366,499.1094,211.5366,495.1094" style="stroke:#181818;stroke-width:1;"/><line style="stroke:#181818;stroke-width:1;" x1="327.3521" x2="327.3521" y1="423.1406" y2="495.1094"/><line style="stroke:#181818;stroke-width:1;" x1="327.3521" x2="241.5366" y1="495.1094" y2="495.1094"/><polygon fill="#181818" points="251.5366,491.1094,241.5366,495.1094,251.5366,499.1094,247.5366,495.1094" style="stroke:#181818;stroke-width:1;"/><line style="stroke:#181818;stroke-width:1;" x1="229.5366" x2="229.5366" y1="335.1719" y2="355.1719"/><polygon fill="#181818" points="225.5366,345.1719,229.5366,355.1719,233.5366,345.1719,229.5366,349.1719" style="stroke:#181818;stroke-width:1;"/><line style="stroke:#181818;stroke-width:1;" x1="229.5366" x2="229.5366" y1="507.1094" y2="527.1094"/><polygon fill="#181818" points="225.5366,517.1094,229.5366,527.1094,233.5366,517.1094,229.5366,521.1094" style="stroke:#181818;stroke-width:1;"/><!--SRC=[DP2nJiD038RtF8N7H8Y1Zks00BK2AJ1GmMxT_MbDaxl8vqRaxN42Z3x_z_cpJQm77UVosjAqeKUSUPAiL3y4aqbiRkYMsXpOG2_fwwg8z2mNQ5MCrQhjEm9a0aKffYY5YfmIzrH_FDqrksgxBoR3yhk0DPo95UpFBL-JLr5pmfBTUBRBUgc8jeT-_a-FR0PDlptY4qjQ4aSVnGDD4f7fXWmz1fZEkmefqigHZkfFyIK6YZ04GxnloCv8LCyepOfPqY5dZP9SiJZANKzOGDv-ooRTJBvLk882agluXBwuSSehOVyziZF-R4DMbPXrrP3EJvJ77m00]--></g></svg>