<?xml version="1.0" encoding="UTF-8" standalone="no"?><svg xmlns="http://www.w3.org/2000/svg" xmlns:xlink="http://www.w3.org/1999/xlink" contentScriptType="application/ecmascript" contentStyleType="text/css" height="947px" preserveAspectRatio="none" style="width:3622px;height:947px;" version="1.1" viewBox="0 0 3622 947" width="3622px" zoomAndPan="magnify"><defs/><g><text fill="#000000" font-family="sans-serif" font-size="18" lengthAdjust="spacingAndGlyphs" textLength="469" x="1582.5" y="16.708">Drone Subsystem - Internal Block Diagram (detailed)</text><!--MD5=[c2b3c13265fdb9895be02c68cc8c6add]
cluster Drone--><polygon fill="#FFFFFF" points="22,167.9531,76,167.9531,83,190.25,3600,190.25,3600,797.9531,22,797.9531,22,167.9531" style="stroke: #000000; stroke-width: 1.5;"/><line style="stroke: #000000; stroke-width: 1.5;" x1="22" x2="83" y1="190.25" y2="190.25"/><text fill="#000000" font-family="sans-serif" font-size="14" font-weight="bold" lengthAdjust="spacingAndGlyphs" textLength="48" x="26" y="182.9482">Drone</text><text fill="#000000" font-family="sans-serif" font-size="14" font-style="italic" lengthAdjust="spacingAndGlyphs" textLength="92" x="1769" y="205.2451">«subsystem»</text><!--MD5=[e54c24d81b58f597706b2988ab82eb59]
entity Power--><rect fill="#FEFECE" height="85.1875" style="stroke: #A80036; stroke-width: 1.5;" width="141" x="44" y="580.4531"/><rect fill="#FEFECE" height="5" style="stroke: #A80036; stroke-width: 1.5;" width="10" x="39" y="585.4531"/><rect fill="#FEFECE" height="5" style="stroke: #A80036; stroke-width: 1.5;" width="10" x="39" y="655.6406"/><text fill="#000000" font-family="sans-serif" font-size="14" lengthAdjust="spacingAndGlyphs" textLength="98" x="54" y="603.4482">Power System</text><text fill="#000000" font-family="sans-serif" font-size="14" lengthAdjust="spacingAndGlyphs" textLength="100" x="54" y="619.7451">- smart battery</text><text fill="#000000" font-family="sans-serif" font-size="14" lengthAdjust="spacingAndGlyphs" textLength="90" x="54" y="636.042">- BMS + PDB</text><text fill="#000000" font-family="sans-serif" font-size="14" lengthAdjust="spacingAndGlyphs" textLength="121" x="54" y="652.3389">- power telemetry</text><!--MD5=[2aaabf540065d331afc3db4236047085]
entity Propulsion--><rect fill="#FEFECE" height="68.8906" style="stroke: #A80036; stroke-width: 1.5;" width="169" x="3415" y="601.4531"/><rect fill="#FEFECE" height="5" style="stroke: #A80036; stroke-width: 1.5;" width="10" x="3410" y="606.4531"/><rect fill="#FEFECE" height="5" style="stroke: #A80036; stroke-width: 1.5;" width="10" x="3410" y="660.3438"/><text fill="#000000" font-family="sans-serif" font-size="14" lengthAdjust="spacingAndGlyphs" textLength="149" x="3425" y="624.4482">Airframe &amp; Propulsion</text><text fill="#000000" font-family="sans-serif" font-size="14" lengthAdjust="spacingAndGlyphs" textLength="106" x="3425" y="640.7451">- rotors + ESCs</text><text fill="#000000" font-family="sans-serif" font-size="14" lengthAdjust="spacingAndGlyphs" textLength="119" x="3425" y="657.042">- low-noise props</text><!--MD5=[17645e6d3383eb257a7bef74b380f0cf]
entity FCU--><rect fill="#FEFECE" height="68.8906" style="stroke: #A80036; stroke-width: 1.5;" width="196" x="3042" y="318.4531"/><rect fill="#FEFECE" height="5" style="stroke: #A80036; stroke-width: 1.5;" width="10" x="3037" y="323.4531"/><rect fill="#FEFECE" height="5" style="stroke: #A80036; stroke-width: 1.5;" width="10" x="3037" y="377.3438"/><text fill="#000000" font-family="sans-serif" font-size="14" lengthAdjust="spacingAndGlyphs" textLength="150" x="3052" y="341.4482">Flight Controller (FCU)</text><text fill="#000000" font-family="sans-serif" font-size="14" lengthAdjust="spacingAndGlyphs" textLength="176" x="3052" y="357.7451">- stabilization &amp; flight plan</text><text fill="#000000" font-family="sans-serif" font-size="14" lengthAdjust="spacingAndGlyphs" textLength="135" x="3052" y="374.042">- failsafe: hover/RTL</text><!--MD5=[9fd51f513b50cc366ca87710ec7e2737]
entity NavSensors--><rect fill="#FEFECE" height="85.1875" style="stroke: #A80036; stroke-width: 1.5;" width="204" x="753.5" y="256.4531"/><rect fill="#FEFECE" height="5" style="stroke: #A80036; stroke-width: 1.5;" width="10" x="748.5" y="261.4531"/><rect fill="#FEFECE" height="5" style="stroke: #A80036; stroke-width: 1.5;" width="10" x="748.5" y="331.6406"/><text fill="#000000" font-family="sans-serif" font-size="14" lengthAdjust="spacingAndGlyphs" textLength="132" x="763.5" y="279.4482">Navigation Sensors</text><text fill="#000000" font-family="sans-serif" font-size="14" lengthAdjust="spacingAndGlyphs" textLength="172" x="763.5" y="295.7451">- GNSS (multi-const/RTK)</text><text fill="#000000" font-family="sans-serif" font-size="14" lengthAdjust="spacingAndGlyphs" textLength="184" x="763.5" y="312.042">- IMU, baro, magnetometer</text><text fill="#000000" font-family="sans-serif" font-size="14" lengthAdjust="spacingAndGlyphs" textLength="118" x="763.5" y="328.3389">- altimeter/terrain</text><!--MD5=[f8ab5d1df7d1ab980dabb1e88d5d035f]
entity Perception--><rect fill="#FEFECE" height="85.1875" style="stroke: #A80036; stroke-width: 1.5;" width="153" x="38" y="219.4531"/><rect fill="#FEFECE" height="5" style="stroke: #A80036; stroke-width: 1.5;" width="10" x="33" y="224.4531"/><rect fill="#FEFECE" height="5" style="stroke: #A80036; stroke-width: 1.5;" width="10" x="33" y="294.6406"/><text fill="#000000" font-family="sans-serif" font-size="14" lengthAdjust="spacingAndGlyphs" textLength="114" x="48" y="242.4482">Perception Suite</text><text fill="#000000" font-family="sans-serif" font-size="14" lengthAdjust="spacingAndGlyphs" textLength="96" x="48" y="258.7451">- EO/IR gimbal</text><text fill="#000000" font-family="sans-serif" font-size="14" lengthAdjust="spacingAndGlyphs" textLength="116" x="48" y="275.042">- thermal camera</text><text fill="#000000" font-family="sans-serif" font-size="14" lengthAdjust="spacingAndGlyphs" textLength="133" x="48" y="291.3389">- LiDAR/rangefinder</text><!--MD5=[69063365b265364f6e14d8b8b3a17348]
entity EdgeAI--><rect fill="#FEFECE" height="85.1875" style="stroke: #A80036; stroke-width: 1.5;" width="187" x="762" y="388.4531"/><rect fill="#FEFECE" height="5" style="stroke: #A80036; stroke-width: 1.5;" width="10" x="757" y="393.4531"/><rect fill="#FEFECE" height="5" style="stroke: #A80036; stroke-width: 1.5;" width="10" x="757" y="463.6406"/><text fill="#000000" font-family="sans-serif" font-size="14" lengthAdjust="spacingAndGlyphs" textLength="120" x="772" y="411.4482">Edge AI Compute</text><text fill="#000000" font-family="sans-serif" font-size="14" lengthAdjust="spacingAndGlyphs" textLength="167" x="772" y="427.7451">- detection/classification</text><text fill="#000000" font-family="sans-serif" font-size="14" lengthAdjust="spacingAndGlyphs" textLength="147" x="772" y="444.042">- fusion &amp; localization</text><text fill="#000000" font-family="sans-serif" font-size="14" lengthAdjust="spacingAndGlyphs" textLength="111" x="772" y="460.3389">- SLAM/mapping</text><!--MD5=[0f11d469573130723c2f29ccb7437d18]
entity MissionMgr--><rect fill="#FEFECE" height="85.1875" style="stroke: #A80036; stroke-width: 1.5;" width="154" x="1906" y="501.4531"/><rect fill="#FEFECE" height="5" style="stroke: #A80036; stroke-width: 1.5;" width="10" x="1901" y="506.4531"/><rect fill="#FEFECE" height="5" style="stroke: #A80036; stroke-width: 1.5;" width="10" x="1901" y="576.6406"/><text fill="#000000" font-family="sans-serif" font-size="14" lengthAdjust="spacingAndGlyphs" textLength="116" x="1916" y="524.4482">Mission Manager</text><text fill="#000000" font-family="sans-serif" font-size="14" lengthAdjust="spacingAndGlyphs" textLength="118" x="1916" y="540.7451">- search patterns</text><text fill="#000000" font-family="sans-serif" font-size="14" lengthAdjust="spacingAndGlyphs" textLength="123" x="1916" y="557.042">- geofence + NFZ</text><text fill="#000000" font-family="sans-serif" font-size="14" lengthAdjust="spacingAndGlyphs" textLength="134" x="1916" y="573.3389">- SLA timer (15 min)</text><!--MD5=[28f16f9fed5643f4106147d1a33507af]
entity Comms--><rect fill="#FEFECE" height="85.1875" style="stroke: #A80036; stroke-width: 1.5;" width="194" x="2638" y="467.4531"/><rect fill="#FEFECE" height="5" style="stroke: #A80036; stroke-width: 1.5;" width="10" x="2633" y="472.4531"/><rect fill="#FEFECE" height="5" style="stroke: #A80036; stroke-width: 1.5;" width="10" x="2633" y="542.6406"/><text fill="#000000" font-family="sans-serif" font-size="14" lengthAdjust="spacingAndGlyphs" textLength="95" x="2648" y="490.4482">Comms Stack</text><text fill="#000000" font-family="sans-serif" font-size="14" lengthAdjust="spacingAndGlyphs" textLength="174" x="2648" y="506.7451">- primary C2/telemetry RF</text><text fill="#000000" font-family="sans-serif" font-size="14" lengthAdjust="spacingAndGlyphs" textLength="73" x="2648" y="523.042">- video link</text><text fill="#000000" font-family="sans-serif" font-size="14" lengthAdjust="spacingAndGlyphs" textLength="116" x="2648" y="539.3389">- LTE/Sat backup</text><!--MD5=[4b3ad072a20739e27ee671eb32863499]
entity Safety--><rect fill="#FEFECE" height="85.1875" style="stroke: #A80036; stroke-width: 1.5;" width="204" x="1881" y="293.4531"/><rect fill="#FEFECE" height="5" style="stroke: #A80036; stroke-width: 1.5;" width="10" x="1876" y="298.4531"/><rect fill="#FEFECE" height="5" style="stroke: #A80036; stroke-width: 1.5;" width="10" x="1876" y="368.6406"/><text fill="#000000" font-family="sans-serif" font-size="14" lengthAdjust="spacingAndGlyphs" textLength="106" x="1891" y="316.4482">Safety &amp; Health</text><text fill="#000000" font-family="sans-serif" font-size="14" lengthAdjust="spacingAndGlyphs" textLength="89" x="1891" y="332.7451">- link monitor</text><text fill="#000000" font-family="sans-serif" font-size="14" lengthAdjust="spacingAndGlyphs" textLength="103" x="1891" y="349.042">- sensor voting</text><text fill="#000000" font-family="sans-serif" font-size="14" lengthAdjust="spacingAndGlyphs" textLength="184" x="1891" y="365.3389">- degraded-mode handling</text><!--MD5=[6a076269bdbf2d6c98f8fe2020b50285]
entity Payload--><rect fill="#FEFECE" height="85.1875" style="stroke: #A80036; stroke-width: 1.5;" width="138" x="3071" y="528.4531"/><rect fill="#FEFECE" height="5" style="stroke: #A80036; stroke-width: 1.5;" width="10" x="3066" y="533.4531"/><rect fill="#FEFECE" height="5" style="stroke: #A80036; stroke-width: 1.5;" width="10" x="3066" y="603.6406"/><text fill="#000000" font-family="sans-serif" font-size="14" lengthAdjust="spacingAndGlyphs" textLength="111" x="3081" y="551.4482">Payload Options</text><text fill="#000000" font-family="sans-serif" font-size="14" lengthAdjust="spacingAndGlyphs" textLength="118" x="3081" y="567.7451">- loudspeaker/PA</text><text fill="#000000" font-family="sans-serif" font-size="14" lengthAdjust="spacingAndGlyphs" textLength="98" x="3081" y="584.042">- beacon/relay</text><text fill="#000000" font-family="sans-serif" font-size="14" lengthAdjust="spacingAndGlyphs" textLength="95" x="3081" y="600.3389">- drop kit (aid)</text><!--MD5=[30b7b1562c85ecbe9a0361db8e7a0d98]
entity Lighting--><rect fill="#FEFECE" height="68.8906" style="stroke: #A80036; stroke-width: 1.5;" width="177" x="2646.5" y="675.4531"/><rect fill="#FEFECE" height="5" style="stroke: #A80036; stroke-width: 1.5;" width="10" x="2641.5" y="680.4531"/><rect fill="#FEFECE" height="5" style="stroke: #A80036; stroke-width: 1.5;" width="10" x="2641.5" y="734.3438"/><text fill="#000000" font-family="sans-serif" font-size="14" lengthAdjust="spacingAndGlyphs" textLength="129" x="2656.5" y="698.4482">Lighting &amp; Markers</text><text fill="#000000" font-family="sans-serif" font-size="14" lengthAdjust="spacingAndGlyphs" textLength="80" x="2656.5" y="714.7451">- strobes/IR</text><text fill="#000000" font-family="sans-serif" font-size="14" lengthAdjust="spacingAndGlyphs" textLength="157" x="2656.5" y="731.042">- spotlight for night/fog</text><path d="M507,66.4531 L507,91.5859 L1204,91.5859 L1204,76.4531 L1194,66.4531 L507,66.4531 " fill="#FBFB77" style="stroke: #A80036; stroke-width: 1.0;"/><path d="M1194,66.4531 L1194,76.4531 L1204,76.4531 L1194,66.4531 " fill="#FBFB77" style="stroke: #A80036; stroke-width: 1.0;"/><text fill="#000000" font-family="sans-serif" font-size="13" lengthAdjust="spacingAndGlyphs" textLength="676" x="513" y="83.52">RTK-GNSS + terrain sensing provide sub-meter\nlocalization; baro/LiDAR enable canopy/low-altitude flight.</text><path d="M415,126.4531 L415,151.5859 L1296,151.5859 L1296,136.4531 L1286,126.4531 L415,126.4531 " fill="#FBFB77" style="stroke: #A80036; stroke-width: 1.0;"/><path d="M1286,126.4531 L1286,136.4531 L1296,136.4531 L1286,126.4531 " fill="#FBFB77" style="stroke: #A80036; stroke-width: 1.0;"/><text fill="#000000" font-family="sans-serif" font-size="13" lengthAdjust="spacingAndGlyphs" textLength="860" x="421" y="143.52">Edge fusion reduces cloud dependency; thermal + LiDAR support fog/dusk searching; outputs human coordinate confidence over time.</text><path d="M1574,126.4531 L1574,151.5859 A0,0 0 0 0 1574,151.5859 L1979,151.5859 L1983,293.2431 L1987,151.5859 L2392,151.5859 A0,0 0 0 0 2392,151.5859 L2392,136.4531 L2382,126.4531 L1574,126.4531 A0,0 0 0 0 1574,126.4531 " fill="#FBFB77" style="stroke: #A80036; stroke-width: 1.0;"/><path d="M2382,126.4531 L2382,136.4531 L2392,136.4531 L2382,126.4531 " fill="#FBFB77" style="stroke: #A80036; stroke-width: 1.0;"/><text fill="#000000" font-family="sans-serif" font-size="13" lengthAdjust="spacingAndGlyphs" textLength="797" x="1580" y="143.52">Implements hover/RTL on link loss, sensor degradation,\nor low battery to satisfy manual override and safe-state constraints.</text><!--MD5=[300fd4f78de0137b57747b9fb5040e25]
link Power to Propulsion--><path d="M185.18,633.9031 C495.36,681.1031 1781.46,860.3831 2832,761.9531 C3041.17,742.3531 3282.49,688.8831 3409.57,658.2631 " fill="none" id="Power-&gt;Propulsion" style="stroke: #A80036; stroke-width: 1.0;"/><polygon fill="#A80036" points="3414.79,657.0031,3405.0993,655.2451,3409.9318,658.1856,3406.9913,663.0181,3414.79,657.0031" style="stroke: #A80036; stroke-width: 1.0;"/><text fill="#000000" font-family="sans-serif" font-size="13" lengthAdjust="spacingAndGlyphs" textLength="61" x="2484.5" y="774.02">DC power</text><!--MD5=[90d66f36206d75f69e23177406ae3b4e]
link Power to FCU--><path d="M148.02,580.2731 C223.6,481.2231 405.43,243.7331 415,238.9531 C617.59,137.6931 1207.52,219.9531 1434,219.9531 C1434,219.9531 1434,219.9531 2736,219.9531 C2859.17,219.9531 2993.32,276.6631 3071.59,316.0231 " fill="none" id="Power-&gt;FCU" style="stroke: #A80036; stroke-width: 1.0;"/><polygon fill="#A80036" points="3076.21,318.3531,3069.988,310.7186,3071.7494,316.0942,3066.3737,317.8556,3076.21,318.3531" style="stroke: #A80036; stroke-width: 1.0;"/><!--MD5=[b7862b57554a6d82b2ba3588ced56754]
link Power to EdgeAI--><path d="M185.02,604.8931 C317.34,570.5131 605.65,495.6131 757.11,456.2531 " fill="none" id="Power-&gt;EdgeAI" style="stroke: #A80036; stroke-width: 1.0;"/><polygon fill="#A80036" points="761.99,454.9831,752.2737,453.3728,757.1504,456.2394,754.2838,461.1161,761.99,454.9831" style="stroke: #A80036; stroke-width: 1.0;"/><!--MD5=[8ccd9abca0afef4a5d1e98deb868990f]
link Power to Comms--><path d="M185.47,625.3231 C464.33,634.1331 1523.4,661.6731 2392,603.9531 C2488.53,597.5431 2515.76,606.1431 2608,576.9531 C2610.81,576.0631 2628.97,566.5631 2650.66,554.9831 " fill="none" id="Power-&gt;Comms" style="stroke: #A80036; stroke-width: 1.0;"/><polygon fill="#A80036" points="2655.34,552.4831,2645.5168,553.194,2650.9294,554.8383,2649.2851,560.2509,2655.34,552.4831" style="stroke: #A80036; stroke-width: 1.0;"/><!--MD5=[6d355ddd999d2721610377e795176b18]
link Power to Lighting--><path d="M180.04,665.5331 C193.11,672.2631 207.12,678.2231 221,681.9531 C1165.78,935.9931 1443.69,708.3931 2422,715.9531 C2504.66,716.5931 2525.36,717.9231 2608,715.9531 C2618.73,715.6931 2629.96,715.3231 2641.12,714.8731 " fill="none" id="Power-&gt;Lighting" style="stroke: #A80036; stroke-width: 1.0;"/><polygon fill="#A80036" points="2646.24,714.6731,2637.077,711.0622,2641.2446,714.8872,2637.4195,719.0548,2646.24,714.6731" style="stroke: #A80036; stroke-width: 1.0;"/><!--MD5=[6e8e8629a83cef8bbf647437477492eb]
link NavSensors to FCU--><path d="M957.77,294.6831 C1096.7,289.0631 1354.21,279.4731 1574,275.9531 C1937.51,270.1331 2028.92,257.4331 2392,275.9531 C2588.32,285.9631 2636.46,300.7631 2832,320.9531 C2900.31,328.0031 2977.16,336.0131 3036.88,342.2631 " fill="none" id="NavSensors-&gt;FCU" style="stroke: #A80036; stroke-width: 1.0;"/><polygon fill="#A80036" points="3041.87,342.7831,3033.3294,337.8783,3036.8965,342.2686,3032.5062,345.8358,3041.87,342.7831" style="stroke: #A80036; stroke-width: 1.0;"/><text fill="#000000" font-family="sans-serif" font-size="13" lengthAdjust="spacingAndGlyphs" textLength="104" x="2463" y="274.02">attitude/position</text><!--MD5=[b1bef69ee9eb3ce22bd05da01ea99bd6]
link NavSensors to MissionMgr--><path d="M957.7,298.6831 C1099.2,302.7531 1359.51,326.8131 1544,440.9531 C1560.86,451.3831 1556.62,464.4231 1574,473.9531 C1676.88,530.3531 1814.46,543.2831 1900.65,545.2531 " fill="none" id="NavSensors-&gt;MissionMgr" style="stroke: #A80036; stroke-width: 1.0;"/><polygon fill="#A80036" points="1905.74,545.3631,1896.8338,541.1585,1900.7413,545.2489,1896.6509,549.1564,1905.74,545.3631" style="stroke: #A80036; stroke-width: 1.0;"/><text fill="#000000" font-family="sans-serif" font-size="13" lengthAdjust="spacingAndGlyphs" textLength="101" x="1384.5" y="349.02">accuracy/health</text><!--MD5=[2f57f0a5bbdabf1a8f4b4f598332ddf5]
link Safety to FCU--><path d="M2085.23,337.4431 C2303.68,340.6631 2817.21,348.2131 3036.65,351.4431 " fill="none" id="Safety-&gt;FCU" style="stroke: #A80036; stroke-width: 1.0;"/><polygon fill="#A80036" points="3041.78,351.5231,3032.8499,347.3694,3036.7807,351.4374,3032.7128,355.3683,3041.78,351.5231" style="stroke: #A80036; stroke-width: 1.0;"/><text fill="#000000" font-family="sans-serif" font-size="13" lengthAdjust="spacingAndGlyphs" textLength="98" x="2686" y="342.02">failsafe triggers</text><!--MD5=[39e281871ed00355e9397bc2c89728ce]
link Safety to Comms--><path d="M2085.17,335.5031 C2211.7,338.1331 2432.99,353.4031 2608,421.9531 C2615.46,424.8731 2643.65,444.4231 2671.48,464.3531 " fill="none" id="Safety-&gt;Comms" style="stroke: #A80036; stroke-width: 1.0;"/><polygon fill="#A80036" points="2675.58,467.2931,2670.5898,458.8021,2671.5142,464.3829,2665.9334,465.3073,2675.58,467.2931" style="stroke: #A80036; stroke-width: 1.0;"/><text fill="#000000" font-family="sans-serif" font-size="13" lengthAdjust="spacingAndGlyphs" textLength="133" x="2448.5" y="367.02">link state / heartbeat</text><!--MD5=[913e305a6803542f957cebed5b7819ca]
link Perception to EdgeAI--><path d="M191.22,289.9931 C251.24,311.3531 337.58,340.1931 415,358.9531 C531.15,387.1031 667.28,407.5131 756.9,419.2631 " fill="none" id="Perception-&gt;EdgeAI" style="stroke: #A80036; stroke-width: 1.0;"/><polygon fill="#A80036" points="761.94,419.9231,753.5437,414.7751,756.9834,419.266,752.4924,422.7057,761.94,419.9231" style="stroke: #A80036; stroke-width: 1.0;"/><text fill="#000000" font-family="sans-serif" font-size="13" lengthAdjust="spacingAndGlyphs" textLength="162" x="222" y="297.02">video/thermal/point cloud</text><!--MD5=[a73e48f4762c79afbc72be8ed1663650]
link EdgeAI to MissionMgr--><path d="M949.08,440.2531 C1164.58,461.8831 1696.87,515.3231 1900.75,535.7931 " fill="none" id="EdgeAI-&gt;MissionMgr" style="stroke: #A80036; stroke-width: 1.0;"/><polygon fill="#A80036" points="1905.8,536.3031,1897.2455,531.4226,1900.8251,535.8028,1896.4449,539.3824,1905.8,536.3031" style="stroke: #A80036; stroke-width: 1.0;"/><text fill="#000000" font-family="sans-serif" font-size="13" lengthAdjust="spacingAndGlyphs" textLength="155" x="1357.5" y="462.02">detections + confidence</text><text fill="#000000" font-family="sans-serif" font-size="13" lengthAdjust="spacingAndGlyphs" textLength="216" x="1327" y="477.1528">(heat signatures, human posture)</text><!--MD5=[7cec0c99f8f3e3bf4f4a5caa32dd7cc9]
link EdgeAI to Comms--><path d="M949.1,431.3231 C1081.15,432.0631 1331.18,434.3031 1544,440.9531 C2017.2,455.7331 2136.7,447.0931 2608,491.9531 C2616.02,492.7131 2624.3,493.6231 2632.62,494.6231 " fill="none" id="EdgeAI-&gt;Comms" style="stroke: #A80036; stroke-width: 1.0;"/><polygon fill="#A80036" points="2637.8,495.2631,2629.3585,490.1896,2632.8377,494.65,2628.3774,498.1293,2637.8,495.2631" style="stroke: #A80036; stroke-width: 1.0;"/><text fill="#000000" font-family="sans-serif" font-size="13" lengthAdjust="spacingAndGlyphs" textLength="207" x="1879.5" y="438.02">compressed stream / snapshots</text><!--MD5=[5577b14e106c9be38587e31d557c5e7b]
link MissionMgr to FCU--><path d="M2060.01,532.6031 C2141.99,520.2631 2276.34,499.7931 2392,480.9531 C2622.7,443.3831 2892.92,396.3131 3036.73,371.0231 " fill="none" id="MissionMgr-&gt;FCU" style="stroke: #A80036; stroke-width: 1.0;"/><polygon fill="#A80036" points="3041.79,370.1331,3032.2366,367.739,3036.8644,370.9922,3033.6112,375.6201,3041.79,370.1331" style="stroke: #A80036; stroke-width: 1.0;"/><text fill="#000000" font-family="sans-serif" font-size="13" lengthAdjust="spacingAndGlyphs" textLength="186" x="2642" y="404.02">waypoints / velocity setpoints</text><!--MD5=[5460d7ed17c11782632b617d6a9f8888]
link MissionMgr to Comms--><path d="M2060.03,553.3331 C2178.16,566.0231 2412.56,583.6731 2608,551.9531 C2616.1,550.6331 2624.39,548.8731 2632.66,546.8131 " fill="none" id="MissionMgr-&gt;Comms" style="stroke: #A80036; stroke-width: 1.0;"/><polygon fill="#A80036" points="2637.8,545.4931,2628.0882,543.8559,2632.9569,546.736,2630.0768,551.6048,2637.8,545.4931" style="stroke: #A80036; stroke-width: 1.0;"/><text fill="#000000" font-family="sans-serif" font-size="13" lengthAdjust="spacingAndGlyphs" textLength="184" x="2423" y="548.02">telemetry + search progress</text><!--MD5=[d3cc94b3a7da2e9d1e1b98cb7f980a6d]
link Comms to MissionMgr--><path d="M2637.81,514.3131 C2488.78,521.0731 2204.78,533.9431 2065.35,540.2631 " fill="none" id="Comms-&gt;MissionMgr" style="stroke: #A80036; stroke-width: 1.0;"/><polygon fill="#A80036" points="2060.04,540.5031,2069.2137,544.0868,2065.0348,540.2741,2068.8474,536.0951,2060.04,540.5031" style="stroke: #A80036; stroke-width: 1.0;"/><text fill="#000000" font-family="sans-serif" font-size="13" lengthAdjust="spacingAndGlyphs" textLength="167" x="2431.5" y="513.02">mission upload / geofence</text><!--MD5=[83aad634288fd9a9d6b68172036b7959]
link Comms to FCU--><path d="M2832.21,484.7131 C2886.04,469.3331 2953.81,447.8731 3012,422.9531 C3033.95,413.5531 3057.06,401.5131 3077.47,390.0831 " fill="none" id="Comms-&gt;FCU" style="stroke: #A80036; stroke-width: 1.0;"/><polygon fill="#A80036" points="3082.05,387.4931,3072.2471,388.4436,3077.6983,389.9553,3076.1866,395.4064,3082.05,387.4931" style="stroke: #A80036; stroke-width: 1.0;"/><text fill="#000000" font-family="sans-serif" font-size="13" lengthAdjust="spacingAndGlyphs" textLength="125" x="2874.5" y="419.02">manual RC override</text><!--MD5=[e6e33e530a38ad8087a42fb233502da9]
link FCU to Propulsion--><path d="M3184.84,387.6531 C3252.29,441.0531 3381.04,542.9631 3450.77,598.1731 " fill="none" id="FCU-&gt;Propulsion" style="stroke: #A80036; stroke-width: 1.0;"/><polygon fill="#A80036" points="3454.86,601.4131,3450.2726,592.6979,3450.9349,598.3158,3445.3169,598.9781,3454.86,601.4131" style="stroke: #A80036; stroke-width: 1.0;"/><text fill="#000000" font-family="sans-serif" font-size="13" lengthAdjust="spacingAndGlyphs" textLength="115" x="3269" y="457.02">motor commands</text><!--MD5=[5b0f173b518b77b566faf69f0db48440]
link MissionMgr to Payload--><path d="M2060.25,551.7431 C2208.72,566.0531 2547.04,594.3731 2832,586.9531 C2911.92,584.8731 3003.42,579.7531 3065.58,575.8531 " fill="none" id="MissionMgr-&gt;Payload" style="stroke: #A80036; stroke-width: 1.0;"/><polygon fill="#A80036" points="3070.76,575.5331,3061.5268,572.1056,3065.7698,575.8468,3062.0287,580.0898,3070.76,575.5331" style="stroke: #A80036; stroke-width: 1.0;"/><text fill="#000000" font-family="sans-serif" font-size="13" lengthAdjust="spacingAndGlyphs" textLength="141" x="2664.5" y="583.02">deploy aid / broadcast</text><!--MD5=[e0da58666dfae9e41549b5d6d42784c8]
link Comms to Payload--><path d="M2832.02,524.4831 C2903.72,535.3431 3000.23,549.9531 3065.77,559.8731 " fill="none" id="Comms-&gt;Payload" style="stroke: #A80036; stroke-width: 1.0;"/><polygon fill="#A80036" points="3070.83,560.6331,3062.5244,555.34,3065.8855,559.89,3061.3355,563.2511,3070.83,560.6331" style="stroke: #A80036; stroke-width: 1.0;"/><text fill="#000000" font-family="sans-serif" font-size="13" lengthAdjust="spacingAndGlyphs" textLength="148" x="2863" y="526.02">manual payload trigger</text><!--MD5=[e716c97e8be9af14d4af51f52aa3d64f]
link MissionMgr to Lighting--><path d="M2060.07,574.7231 C2146.3,608.1531 2291.82,660.2231 2422,685.9531 C2494.7,700.3231 2578.52,706.1931 2640.96,708.5431 " fill="none" id="MissionMgr-&gt;Lighting" style="stroke: #A80036; stroke-width: 1.0;"/><polygon fill="#A80036" points="2646.17,708.7331,2637.3247,704.4018,2641.1734,708.5475,2637.0277,712.3963,2646.17,708.7331" style="stroke: #A80036; stroke-width: 1.0;"/><text fill="#000000" font-family="sans-serif" font-size="13" lengthAdjust="spacingAndGlyphs" textLength="149" x="2440.5" y="682.02">search/ID lighting cmds</text><!--MD5=[130ce8d4b3bde46a01aae74e8a1a542f]
link Lighting to MissionMgr--><path d="M2646.42,676.7631 C2633.63,672.4731 2620.55,668.3931 2608,664.9531 C2506.5,637.1631 2209.85,583.6131 2065.19,558.1131 " fill="none" id="Lighting-&gt;MissionMgr" style="stroke: #A80036; stroke-width: 1.0;"/><polygon fill="#A80036" points="2060.11,557.2231,2068.2761,562.729,2065.0336,558.0937,2069.669,554.8512,2060.11,557.2231" style="stroke: #A80036; stroke-width: 1.0;"/><text fill="#000000" font-family="sans-serif" font-size="13" lengthAdjust="spacingAndGlyphs" textLength="40" x="2495" y="622.02">status</text><!--MD5=[a99b6f68b9792e9f94856c969ac2e111]
link NavSensors to GMN55--><path d="M753.16,299.5831 C560.87,297.3731 175.91,274.9431 303,126.4531 C431.96,-24.2169 711.13,36.8431 815.26,66.4431 " fill="none" id="NavSensors-GMN55" style="stroke: #A80036; stroke-width: 1.0; stroke-dasharray: 7.0,7.0;"/><!--MD5=[05e672521a8566ea8bcc5c90d8de72ed]
link EdgeAI to GMN58--><path d="M761.97,448.0631 C635.92,465.0731 414.47,472.4331 303,341.4531 C268.15,300.5031 268.03,261.3131 303,220.4531 C334.84,183.2531 427.55,162.7231 528.15,151.4931 " fill="none" id="EdgeAI-GMN58" style="stroke: #A80036; stroke-width: 1.0; stroke-dasharray: 7.0,7.0;"/><!--MD5=[e5d44721c8ca2bded11be7fd149a6b35]
@startuml DroneRescueTEC_DroneIBD
skinparam componentStyle rectangle
skinparam shadowing false
left to right direction

title Drone Subsystem - Internal Block Diagram (detailed)

package "Drone" <<subsystem>> {
  component "Power System\n- smart battery\n- BMS + PDB\n- power telemetry" as Power
  component "Airframe & Propulsion\n- rotors + ESCs\n- low-noise props" as Propulsion
  component "Flight Controller (FCU)\n- stabilization & flight plan\n- failsafe: hover/RTL" as FCU
  component "Navigation Sensors\n- GNSS (multi-const/RTK)\n- IMU, baro, magnetometer\n- altimeter/terrain" as NavSensors
  component "Perception Suite\n- EO/IR gimbal\n- thermal camera\n- LiDAR/rangefinder" as Perception
  component "Edge AI Compute\n- detection/classification\n- fusion & localization\n- SLAM/mapping" as EdgeAI
  component "Mission Manager\n- search patterns\n- geofence + NFZ\n- SLA timer (15 min)" as MissionMgr
  component "Comms Stack\n- primary C2/telemetry RF\n- video link\n- LTE/Sat backup" as Comms
  component "Safety & Health\n- link monitor\n- sensor voting\n- degraded-mode handling" as Safety
  component "Payload Options\n- loudspeaker/PA\n- beacon/relay\n- drop kit (aid)" as Payload
  component "Lighting & Markers\n- strobes/IR\n- spotlight for night/fog" as Lighting
}

Power - -> Propulsion : DC power
Power - -> FCU
Power - -> EdgeAI
Power - -> Comms
Power - -> Lighting

NavSensors - -> FCU : attitude/position
NavSensors - -> MissionMgr : accuracy/health
Safety - -> FCU : failsafe triggers
Safety - -> Comms : link state / heartbeat

Perception - -> EdgeAI : video/thermal/point cloud
EdgeAI - -> MissionMgr : detections + confidence\n(heat signatures, human posture)
EdgeAI - -> Comms : compressed stream / snapshots

MissionMgr - -> FCU : waypoints / velocity setpoints
MissionMgr - -> Comms : telemetry + search progress
Comms - -> MissionMgr : mission upload / geofence
Comms - -> FCU : manual RC override

FCU - -> Propulsion : motor commands
MissionMgr - -> Payload : deploy aid / broadcast
Comms - -> Payload : manual payload trigger
MissionMgr - -> Lighting : search/ID lighting cmds
Lighting - -> MissionMgr : status

note bottom of NavSensors
RTK-GNSS + terrain sensing provide sub-meter\nlocalization; baro/LiDAR enable canopy/low-altitude flight.
end note

note bottom of EdgeAI
Edge fusion reduces cloud dependency; thermal + LiDAR support fog/dusk searching; outputs human coordinate confidence over time.
end note

note bottom of Safety
Implements hover/RTL on link loss, sensor degradation,\nor low battery to satisfy manual override and safe-state constraints.
end note
@enduml

PlantUML version 1.2020.02(Sun Mar 01 10:22:07 UTC 2020)
(GPL source distribution)
Java Runtime: OpenJDK Runtime Environment
JVM: OpenJDK 64-Bit Server VM
Java Version: 21.0.9+10-Ubuntu-124.04
Operating System: Linux
Default Encoding: UTF-8
Language: en
Country: null
--></g></svg>