<?xml version="1.0" encoding="UTF-8" standalone="no"?><svg xmlns="http://www.w3.org/2000/svg" xmlns:xlink="http://www.w3.org/1999/xlink" contentScriptType="application/ecmascript" contentStyleType="text/css" height="470px" preserveAspectRatio="none" style="width:3649px;height:470px;" version="1.1" viewBox="0 0 3649 470" width="3649px" zoomAndPan="magnify"><defs/><g><text fill="#000000" font-family="sans-serif" font-size="18" lengthAdjust="spacingAndGlyphs" textLength="498" x="1578.5" y="16.708">Drone Rescue TEC - Context &amp; Subsystems (SysML-like)</text><!--MD5=[6836d5a2eab849c3646ed0c6ac3825f8]
cluster Drone Rescue TEC System--><polygon fill="#FFFFFF" points="367,122.6431,582,122.6431,589,144.94,1446,144.94,1446,385.6431,367,385.6431,367,122.6431" style="stroke: #000000; stroke-width: 1.5;"/><line style="stroke: #000000; stroke-width: 1.5;" x1="367" x2="589" y1="144.94" y2="144.94"/><text fill="#000000" font-family="sans-serif" font-size="14" font-weight="bold" lengthAdjust="spacingAndGlyphs" textLength="209" x="371" y="137.6382">Drone Rescue TEC System</text><text fill="#000000" font-family="sans-serif" font-size="14" font-style="italic" lengthAdjust="spacingAndGlyphs" textLength="67" x="877" y="159.9351">«system»</text><!--MD5=[a0ac143f46810ee952f237ac76c7d856]
entity RCC--><rect fill="#FEFECE" height="101.4844" style="stroke: #A80036; stroke-width: 1.5;" width="218" x="383" y="240.1431"/><rect fill="#FEFECE" height="5" style="stroke: #A80036; stroke-width: 1.5;" width="10" x="378" y="245.1431"/><rect fill="#FEFECE" height="5" style="stroke: #A80036; stroke-width: 1.5;" width="10" x="378" y="331.6275"/><text fill="#000000" font-family="sans-serif" font-size="14" lengthAdjust="spacingAndGlyphs" textLength="158" x="393" y="263.1382">Rescue Control Center</text><text fill="#000000" font-family="sans-serif" font-size="14" lengthAdjust="spacingAndGlyphs" textLength="94" x="393" y="279.4351">«subsystem»</text><text fill="#000000" font-family="sans-serif" font-size="14" lengthAdjust="spacingAndGlyphs" textLength="110" x="393" y="295.732">- intake distress</text><text fill="#000000" font-family="sans-serif" font-size="14" lengthAdjust="spacingAndGlyphs" textLength="137" x="393" y="312.0289">- define search area</text><text fill="#000000" font-family="sans-serif" font-size="14" lengthAdjust="spacingAndGlyphs" textLength="198" x="393" y="328.3257">- monitor SLA (15 min locate)</text><!--MD5=[2298652fe2fee667f4f45b10180c7a4f]
entity GCS--><rect fill="#FEFECE" height="101.4844" style="stroke: #A80036; stroke-width: 1.5;" width="164" x="878" y="193.1431"/><rect fill="#FEFECE" height="5" style="stroke: #A80036; stroke-width: 1.5;" width="10" x="873" y="198.1431"/><rect fill="#FEFECE" height="5" style="stroke: #A80036; stroke-width: 1.5;" width="10" x="873" y="284.6275"/><text fill="#000000" font-family="sans-serif" font-size="14" lengthAdjust="spacingAndGlyphs" textLength="144" x="888" y="216.1382">Control Device / GCS</text><text fill="#000000" font-family="sans-serif" font-size="14" lengthAdjust="spacingAndGlyphs" textLength="94" x="888" y="232.4351">«subsystem»</text><text fill="#000000" font-family="sans-serif" font-size="14" lengthAdjust="spacingAndGlyphs" textLength="125" x="888" y="248.732">- mission planning</text><text fill="#000000" font-family="sans-serif" font-size="14" lengthAdjust="spacingAndGlyphs" textLength="103" x="888" y="265.0289">- manual sticks</text><text fill="#000000" font-family="sans-serif" font-size="14" lengthAdjust="spacingAndGlyphs" textLength="126" x="888" y="281.3257">- geofence upload</text><!--MD5=[ab821616d325971946c21a6e5934dd16]
entity Drone--><rect fill="#FEFECE" height="52.5938" style="stroke: #A80036; stroke-width: 1.5;" width="114" x="1316" y="248.1431"/><rect fill="#FEFECE" height="5" style="stroke: #A80036; stroke-width: 1.5;" width="10" x="1311" y="253.1431"/><rect fill="#FEFECE" height="5" style="stroke: #A80036; stroke-width: 1.5;" width="10" x="1311" y="290.7369"/><text fill="#000000" font-family="sans-serif" font-size="14" lengthAdjust="spacingAndGlyphs" textLength="43" x="1326" y="271.1382">Drone</text><text fill="#000000" font-family="sans-serif" font-size="14" lengthAdjust="spacingAndGlyphs" textLength="94" x="1326" y="287.4351">«subsystem»</text><!--MD5=[0129a2bda66c9b8876769cf855996f8a]
entity Hiker--><ellipse cx="2672.5" cy="337.1431" fill="#FEFECE" rx="8" ry="8" style="stroke: #A80036; stroke-width: 1.5;"/><path d="M2672.5,345.1431 L2672.5,372.1431 M2659.5,353.1431 L2685.5,353.1431 M2672.5,372.1431 L2659.5,387.1431 M2672.5,372.1431 L2685.5,387.1431 " fill="none" style="stroke: #A80036; stroke-width: 1.5;"/><text fill="#000000" font-family="sans-serif" font-size="14" lengthAdjust="spacingAndGlyphs" textLength="114" x="2615.5" y="402.6382">Distressed Hiker</text><!--MD5=[3e6f7958578ca3e1c1ea5ff35f7f7b3a]
entity Rescuer--><ellipse cx="492" cy="38.1431" fill="#FEFECE" rx="8" ry="8" style="stroke: #A80036; stroke-width: 1.5;"/><path d="M492,46.1431 L492,73.1431 M479,54.1431 L505,54.1431 M492,73.1431 L479,88.1431 M492,73.1431 L505,88.1431 " fill="none" style="stroke: #A80036; stroke-width: 1.5;"/><text fill="#000000" font-family="sans-serif" font-size="14" lengthAdjust="spacingAndGlyphs" textLength="126" x="429" y="103.6382">Mountain Rescuer</text><!--MD5=[ecac65e018b2ccf4411957157ca2cac5]
entity Network--><ellipse cx="72" cy="252.6431" fill="#FEFECE" rx="8" ry="8" style="stroke: #A80036; stroke-width: 1.5;"/><path d="M72,260.6431 L72,287.6431 M59,268.6431 L85,268.6431 M72,287.6431 L59,302.6431 M72,287.6431 L85,302.6431 " fill="none" style="stroke: #A80036; stroke-width: 1.5;"/><text fill="#000000" font-family="sans-serif" font-size="14" lengthAdjust="spacingAndGlyphs" textLength="132" x="6" y="318.1382">Public/Cell Network</text><text fill="#000000" font-family="sans-serif" font-size="14" lengthAdjust="spacingAndGlyphs" textLength="65" x="6" y="334.4351">(optional)</text><path d="M1708,262.1431 L1708,270.6431 L1430.17,274.6431 L1708,278.6431 L1708,287.2759 A0,0 0 0 0 1708,287.2759 L3637,287.2759 A0,0 0 0 0 3637,287.2759 L3637,272.1431 L3627,262.1431 L1708,262.1431 A0,0 0 0 0 1708,262.1431 " fill="#FBFB77" style="stroke: #A80036; stroke-width: 1.0;"/><path d="M3627,262.1431 L3627,272.1431 L3637,272.1431 L3627,262.1431 " fill="#FBFB77" style="stroke: #A80036; stroke-width: 1.0;"/><text fill="#000000" font-family="sans-serif" font-size="13" lengthAdjust="spacingAndGlyphs" textLength="1908" x="1714" y="279.21">R-01: deliver confirmed human coordinate within 15 min\nR-02: sub-meter spotting accuracy (0.1-2 m)\nR-04: operate in canopy/fog/dusk via edge processing\nR-05: manual override + safe-state (hover/RTL)\nR-06: prefer COTS, low power/quiet profile\nR-07: optional payload drop / observation hover</text><!--MD5=[0f8695d868faea5fccc8897c8da69722]
link Hiker to RCC--><path d="M2615.37,372.5831 C2409.16,393.4131 1674.11,458.8331 1072,401.6431 C908.47,386.1131 722.42,346.4331 606.36,318.9831 " fill="none" id="Hiker-&gt;RCC" style="stroke: #A80036; stroke-width: 1.0;"/><polygon fill="#A80036" points="601.23,317.7631,609.0619,323.7348,606.0946,318.9187,610.9108,315.9514,601.23,317.7631" style="stroke: #A80036; stroke-width: 1.0;"/><text fill="#000000" font-family="sans-serif" font-size="13" lengthAdjust="spacingAndGlyphs" textLength="143" x="1107.5" y="382.71">distress call / app SOS</text><text fill="#000000" font-family="sans-serif" font-size="13" lengthAdjust="spacingAndGlyphs" textLength="132" x="1113" y="397.8428">(coarse coordinates)</text><!--MD5=[2187dd0d02bdcc92bf0f0317aa3b2366]
link RCC to GCS--><path d="M601.08,279.7431 C683.69,271.4131 796.05,260.0831 872.7,252.3531 " fill="none" id="RCC-&gt;GCS" style="stroke: #A80036; stroke-width: 1.0;"/><polygon fill="#A80036" points="877.7,251.8431,868.3449,248.7638,872.7251,252.3435,869.1455,256.7237,877.7,251.8431" style="stroke: #A80036; stroke-width: 1.0;"/><text fill="#000000" font-family="sans-serif" font-size="13" lengthAdjust="spacingAndGlyphs" textLength="215" x="632" y="236.71">search polygon + mission tasking</text><text fill="#000000" font-family="sans-serif" font-size="13" lengthAdjust="spacingAndGlyphs" textLength="97" x="691" y="251.8428">(SAR playbook)</text><!--MD5=[764e81b55ecdccaccd5e335249446269]
link GCS to Drone--><path d="M1005.85,294.1531 C1024.4,311.3931 1047.34,328.6031 1072,337.6431 C1161.3,370.3731 1195.6,367.2131 1286,337.6431 C1306.26,331.0131 1325.7,317.6031 1340.95,304.8431 " fill="none" id="GCS-&gt;Drone" style="stroke: #A80036; stroke-width: 1.0;"/><polygon fill="#A80036" points="1345.14,301.2731,1335.6923,304.0552,1341.3307,304.5118,1340.8741,310.1502,1345.14,301.2731" style="stroke: #A80036; stroke-width: 1.0;"/><text fill="#000000" font-family="sans-serif" font-size="13" lengthAdjust="spacingAndGlyphs" textLength="157" x="1100.5" y="318.71">launch + mission upload</text><text fill="#000000" font-family="sans-serif" font-size="13" lengthAdjust="spacingAndGlyphs" textLength="146" x="1106" y="333.8428">(control link, geofence)</text><!--MD5=[6658d6348d3c126c88364e22728c9037]
link Drone to GCS--><path d="M1315.81,252.0631 C1306.01,248.9931 1295.82,246.3231 1286,244.6431 C1205.91,230.9531 1113.09,232.3431 1047.2,236.1831 " fill="none" id="Drone-&gt;GCS" style="stroke: #A80036; stroke-width: 1.0;"/><polygon fill="#A80036" points="1042.11,236.4931,1051.3334,239.9469,1047.101,236.1937,1050.8543,231.9613,1042.11,236.4931" style="stroke: #A80036; stroke-width: 1.0;"/><text fill="#000000" font-family="sans-serif" font-size="13" lengthAdjust="spacingAndGlyphs" textLength="212" x="1073" y="214.71">telemetry, video/thermal stream,</text><text fill="#000000" font-family="sans-serif" font-size="13" lengthAdjust="spacingAndGlyphs" textLength="144" x="1107" y="229.8428">detections, confidence</text><!--MD5=[764e81b55ecdccaccd5e335249446269]
link GCS to Drone--><path d="M1042.18,264.7531 C1052.16,266.7231 1062.28,268.4431 1072,269.6431 C1154.21,279.8431 1250.05,279.2931 1310.86,277.4231 " fill="none" id="GCS-&gt;Drone-1" style="stroke: #A80036; stroke-width: 1.0;"/><polygon fill="#A80036" points="1315.91,277.2631,1306.7782,273.5739,1310.9129,277.4345,1307.0523,281.5692,1315.91,277.2631" style="stroke: #A80036; stroke-width: 1.0;"/><text fill="#000000" font-family="sans-serif" font-size="13" lengthAdjust="spacingAndGlyphs" textLength="187" x="1085.5" y="265.71">manual RC input / RTL / hover</text><!--MD5=[232396e4335e24708e546116972a7062]
link GCS to Rescuer--><path d="M877.84,222.4031 C788.3,198.7631 653.78,162.5831 631,152.6431 C604.17,140.9431 576.36,124.7131 552.79,109.5731 " fill="none" id="GCS-&gt;Rescuer" style="stroke: #A80036; stroke-width: 1.0;"/><polygon fill="#A80036" points="548.44,106.7531,553.8278,114.9976,552.6394,109.467,558.17,108.2786,548.44,106.7531" style="stroke: #A80036; stroke-width: 1.0;"/><text fill="#000000" font-family="sans-serif" font-size="13" lengthAdjust="spacingAndGlyphs" textLength="147" x="666" y="133.71">confirmed coordinates,</text><text fill="#000000" font-family="sans-serif" font-size="13" lengthAdjust="spacingAndGlyphs" textLength="112" x="683.5" y="148.8428">progress updates</text><!--MD5=[e0192bb7dde4b295ae05c473339fa833]
link Rescuer to GCS--><path d="M555.09,63.5031 C629.28,61.3031 755.06,66.4931 848,116.6431 C879.07,133.4131 905.49,162.5431 924.75,188.6831 " fill="none" id="Rescuer-&gt;GCS" style="stroke: #A80036; stroke-width: 1.0;"/><polygon fill="#A80036" points="927.78,192.8531,925.7174,183.2227,924.8374,188.8107,919.2494,187.9308,927.78,192.8531" style="stroke: #A80036; stroke-width: 1.0;"/><text fill="#000000" font-family="sans-serif" font-size="13" lengthAdjust="spacingAndGlyphs" textLength="161" x="659" y="60.71">manual takeover request</text><!--MD5=[8a1b232ac91eed28dbe92a0087162452]
link Drone to Hiker--><path d="M1430.38,292.6531 C1440.81,295.4131 1451.66,297.9131 1462,299.6431 C1897.16,372.5831 2431.43,370.9731 2610.07,368.0131 " fill="none" id="Drone-&gt;Hiker" style="stroke: #A80036; stroke-width: 1.0;"/><polygon fill="#A80036" points="2615.25,367.9231,2606.1826,364.0784,2610.2507,368.0091,2606.3201,372.0772,2615.25,367.9231" style="stroke: #A80036; stroke-width: 1.0;"/><text fill="#000000" font-family="sans-serif" font-size="13" lengthAdjust="spacingAndGlyphs" textLength="214" x="1463" y="295.71">PA/voice, strobe, optional drop kit</text><!--MD5=[01af3f7cfde4d8f3f24dd00d6acd062d]
link Network to RCC--><path d="M138.31,290.6431 C203.64,290.6431 305.26,290.6431 382.67,290.6431 " fill="none" id="Network-RCC" style="stroke: #A80036; stroke-width: 1.0; stroke-dasharray: 7.0,7.0;"/><text fill="#000000" font-family="sans-serif" font-size="13" lengthAdjust="spacingAndGlyphs" textLength="181" x="169" y="286.71">map layers / backup comms</text><!--MD5=[51e65c129d98f54d18a77c0b4a522339]
@startuml DroneRescueTEC_Context
skinparam componentStyle rectangle
skinparam shadowing false
left to right direction

title Drone Rescue TEC - Context & Subsystems (SysML-like)

actor "Distressed Hiker" as Hiker
actor "Mountain Rescuer" as Rescuer
actor "Public/Cell Network\n(optional)" as Network

package "Drone Rescue TEC System" <<system>> {
  component "Rescue Control Center\n<<subsystem>>\n- intake distress\n- define search area\n- monitor SLA (15 min locate)" as RCC
  component "Control Device / GCS\n<<subsystem>>\n- mission planning\n- manual sticks\n- geofence upload" as GCS
  component "Drone\n<<subsystem>>" as Drone
}

Hiker - -> RCC : distress call / app SOS\n(coarse coordinates)
RCC - -> GCS : search polygon + mission tasking\n(SAR playbook)
GCS - -> Drone : launch + mission upload\n(control link, geofence)
Drone - -> GCS : telemetry, video/thermal stream,\ndetections, confidence
GCS - -> Rescuer : confirmed coordinates,\nprogress updates
Rescuer - -> GCS : manual takeover request
GCS - -> Drone : manual RC input / RTL / hover
Drone - -> Hiker : PA/voice, strobe, optional drop kit
Network .. RCC : map layers / backup comms

note right of Drone
R-01: deliver confirmed human coordinate within 15 min\nR-02: sub-meter spotting accuracy (0.1-2 m)\nR-04: operate in canopy/fog/dusk via edge processing\nR-05: manual override + safe-state (hover/RTL)\nR-06: prefer COTS, low power/quiet profile\nR-07: optional payload drop / observation hover
end note
@enduml

PlantUML version 1.2020.02(Sun Mar 01 10:22:07 UTC 2020)
(GPL source distribution)
Java Runtime: OpenJDK Runtime Environment
JVM: OpenJDK 64-Bit Server VM
Java Version: 21.0.9+10-Ubuntu-124.04
Operating System: Linux
Default Encoding: UTF-8
Language: en
Country: null
--></g></svg>